<?xml version="1.0" encoding="UTF-8" standalone="no"?>
<svg
   xmlns:dc="http://purl.org/dc/elements/1.1/"
   xmlns:cc="http://creativecommons.org/ns#"
   xmlns:rdf="http://www.w3.org/1999/02/22-rdf-syntax-ns#"
   xmlns:svg="http://www.w3.org/2000/svg"
   xmlns="http://www.w3.org/2000/svg"
   viewBox="0 0 816 1056"
   height="1056"
   width="816"
   xml:space="preserve"
   id="svg2"
   version="1.1"><metadata
     id="metadata8"><rdf:RDF><cc:Work
         rdf:about=""><dc:format>image/svg+xml</dc:format><dc:type
           rdf:resource="http://purl.org/dc/dcmitype/StillImage" /></cc:Work></rdf:RDF></metadata><defs
     id="defs6"><clipPath
       id="clipPath18"
       clipPathUnits="userSpaceOnUse"><path
         style="clip-rule:evenodd"
         id="path16"
         d="M 0,0 H 2550 V 3296.875 H 0 Z" /></clipPath></defs><g
     transform="matrix(0.31999998,0,0,0.31999998,0,2.64e-5)"
     id="g10"><g
       id="g12"><g
         clip-path="url(#clipPath18)"
         id="g14"><g
           transform="scale(3.125)"
           id="g20"><path
             id="path22"
             style="fill:#ffffff;fill-opacity:1;fill-rule:nonzero;stroke:none"
             d="M 0,0 H 816 V 1056 H 0 Z" /><text
             id="text26"
             style="font-variant:normal;font-weight:normal;font-size:17.32999992px;font-family:TimesNewRomanPSMT;-inkscape-font-specification:TimesNewRomanPSMT;writing-mode:lr-tb;fill:#000000;fill-opacity:1;fill-rule:nonzero;stroke:none"
             transform="translate(96,112.18229)"><tspan
               id="tspan24"
               y="0"
               x="0 6.7441406 15.409134 22.153275 26.968094 34.659973 43.324966 47.657455 63.066589 70.758469 86.167603 93.859482 102.52448 110.21635 123.69618 132.36118">Josiah McMenamy </tspan></text>
<text
             id="text30"
             style="font-variant:normal;font-weight:normal;font-size:17.32999992px;font-family:TimesNewRomanPSMT;-inkscape-font-specification:TimesNewRomanPSMT;writing-mode:lr-tb;fill:#000000;fill-opacity:1;fill-rule:nonzero;stroke:none"
             transform="translate(96,132.11394)"><tspan
               id="tspan28"
               y="0"
               x="0 5.7710114 14.436005 23.100998 31.765991 37.537003 41.869492 50.534485 59.199478 67.864471 73.635483 82.300476 90.965469 99.630463 108.29546">(916) 572-9078 </tspan></text>
<text
             id="text34"
             style="font-variant:normal;font-weight:normal;font-size:17.32999992px;font-family:TimesNewRomanPSMT;-inkscape-font-specification:TimesNewRomanPSMT;writing-mode:lr-tb;fill:#1155cc;fill-opacity:1;fill-rule:nonzero;stroke:none"
             transform="translate(96,152.04558)"><tspan
               id="tspan32"
               y="0"
               x="0 4.8148193 13.479813 20.223953 25.038773 32.730652 41.395645 46.210464 59.690292 67.382172 80.862 96.821167 105.48616 118.96599 126.65787 131.47269 136.28751 140.62 148.31187 156.97687 170.4567">josiahjmcm@gmail.com </tspan></text>
<text
             id="text38"
             style="font-variant:normal;font-weight:normal;font-size:17.32999992px;font-family:TimesNewRomanPSMT;-inkscape-font-specification:TimesNewRomanPSMT;writing-mode:lr-tb;fill:#000000;fill-opacity:1;fill-rule:nonzero;stroke:none"
             transform="translate(96,191.90886)"><tspan
               id="tspan36"
               y="0"
               x="0 12.515167 20.207047 27.898926 33.669937 38.002426 50.517593 55.332413 61.103424 65.918243 74.583237 83.24823 87.580719 102.98985 110.68173 119.34673 127.0386 135.7036 143.39548 148.47261 152.8051">Dear Hiring Manager, </tspan></text>
<text
             id="text42"
             style="font-variant:normal;font-weight:normal;font-size:17.32999992px;font-family:TimesNewRomanPSMT;-inkscape-font-specification:TimesNewRomanPSMT;writing-mode:lr-tb;fill:#000000;fill-opacity:1;fill-rule:nonzero;stroke:none"
             transform="translate(96,231.77214)"><tspan
               id="tspan40"
               y="0"
               x="0 5.7710114 10.1035 18.768494 26.460373 35.125366 42.817245 47.149734 54.841614 59.174103 67.839096 75.530975 83.222855 91.887848 96.220337 101.03516 109.70015 114.51497 122.20685 127.97786 135.66974 142.41388 147.2287 151.56119 156.37601 165.041 169.37349 177.06537 184.75725 192.44913 201.11412 214.59395 223.25894 228.07376 232.88858 239.63272 248.29771 253.11253 261.77753 270.4425 274.77499 282.46686 291.13184 304.61166 313.27667 318.09149 325.78339 334.44836 338.78085 343.59567 351.28754 358.03168 366.69666 373.4408 377.77328 390.28845 395.10327 399.91809 408.58307 412.91556 419.6597 428.32471 434.0957 438.91052 451.42569 459.11755 464.88855 472.58044 476.91293 481.72775 490.39276 494.72525 502.41711 508.18811 515.88 523.5719 528.38672 536.07861 540.41113 547.15527 555.82025 569.30005 576.99194 581.80676 590.47174 595.28656 603.95154 612.61652">I have a deep interest in accomplishing complex tasks with software to create something </tspan></text>
<text
             id="text46"
             style="font-variant:normal;font-weight:normal;font-size:17.32999992px;font-family:TimesNewRomanPSMT;-inkscape-font-specification:TimesNewRomanPSMT;writing-mode:lr-tb;fill:#000000;fill-opacity:1;fill-rule:nonzero;stroke:none"
             transform="translate(96,251.70378)"><tspan
               id="tspan44"
               y="0"
               x="0 4.8148193 13.479813 21.171692 25.986511 30.319 38.01088 45.702759 54.367752 58.700241 67.365234 75.057114 83.722107 91.413986 95.746475 103.43835 107.77084 114.51498 119.3298 127.9948 136.65979 141.47461 147.24562 152.06044 159.75232 167.4442 176.10919 180.92401 185.2565 190.07132 203.55115 212.21614 219.90802 227.5999 232.41472 236.74721 241.0797 246.85071 252.62172 266.10156 270.43405 278.12592 282.94073 295.4559 303.14777 311.81274 318.55688 322.88937 330.58124 338.27313 346.93811 354.63 360.401 364.73349 369.54831 378.21332 382.54581 387.36063 395.05249 402.74438 408.51538 417.18036 421.51285 429.20471 437.86969 446.53467 450.86716 458.55902 467.224 474.91589 479.73071 484.54553 492.23743 500.9024 509.56738 517.25928 521.5918 535.07166 543.73663 550.48077 558.17267 562.98749 568.75848 573.09094 577.90576 586.57074">that can have a significant impact. I’m always eager to learn and challenge myself to </tspan></text>
<text
             id="text50"
             style="font-variant:normal;font-weight:normal;font-size:17.32999992px;font-family:TimesNewRomanPSMT;-inkscape-font-specification:TimesNewRomanPSMT;writing-mode:lr-tb;fill:#000000;fill-opacity:1;fill-rule:nonzero;stroke:none"
             transform="translate(96,271.63541)"><tspan
               id="tspan48"
               y="0"
               x="0 4.8148193 12.506699 20.198578 28.863571 33.678391 41.37027 45.702759 54.367752 62.059631 67.830643 76.495636 80.828125 89.493118 95.26413 103.92912 112.59412 117.40894 125.10081 138.58064 145.32478 149.65727">tackle hard problems. </tspan></text>
<text
             id="text54"
             style="font-variant:normal;font-weight:normal;font-size:17.32999992px;font-family:TimesNewRomanPSMT;-inkscape-font-specification:TimesNewRomanPSMT;writing-mode:lr-tb;fill:#000000;fill-opacity:1;fill-rule:nonzero;stroke:none"
             transform="translate(96,311.49869)"><tspan
               id="tspan52"
               y="0"
               x="0 15.409134 24.074127 28.406616 41.886444 50.551437 57.295578 62.110397 66.442886 72.213898 79.905777 87.597656 95.289536 103.95453 108.76935 113.10184 120.79372 129.45871 138.1237 145.81558 151.58659 156.40141 164.09329 172.75829 180.45016 188.14204 192.47453 204.9897 212.68158 219.42572 223.75821 231.45009 236.26491 240.5974 249.97319 258.63818 266.33008 273.07422 277.88904 282.22153 286.55402 299.06918 307.73419 315.42609 321.19708 328.88898 333.22147 338.99249 343.32498 351.98999 357.76099 365.45288 373.14478 377.95959 382.77441 391.43939 395.77188 403.46375 412.12872 416.94354 425.60852 434.2735 441.96539 450.63037 454.96286 459.77768 467.46954 475.16144 480.93243 489.59741 494.41223 503.07721 511.74219 516.07471 524.73969 532.43158 544.94678 549.2793 554.09412 562.75909 567.57391 576.23889 584.90387 591.64801">My most recent experience was at Toast, where I greatly enjoyed learning new things </tspan></text>
<text
             id="text58"
             style="font-variant:normal;font-weight:normal;font-size:17.32999992px;font-family:TimesNewRomanPSMT;-inkscape-font-specification:TimesNewRomanPSMT;writing-mode:lr-tb;fill:#000000;fill-opacity:1;fill-rule:nonzero;stroke:none"
             transform="translate(96,331.43033)"><tspan
               id="tspan56"
               y="0"
               x="0 5.7710114 13.462891 20.207031 28.872025 36.563904 44.255783 49.070602 56.762482 61.577301 66.39212 75.057114 79.389603 91.90477 100.56976 105.38458 110.1994 115.01422 123.67921 128.0117 135.70358 144.36858 153.03357 157.36606 166.03105 173.72293 182.38792 190.0798 198.7448 207.40979 215.10167 223.76666 231.45854 240.12354 244.45602 249.27084 257.93585 262.75067 270.44257 278.13446 282.94928 287.7641 296.42908 305.09406 310.86505 315.19754 322.8894 331.55438 340.21936 344.55185 357.06702 362.83801 367.65283 372.46765 377.28247 385.94745 394.61243 398.94492 405.68906 414.35406 420.12506 424.93988 437.45505 445.14691 450.91791 458.6098 462.94229 467.75711 476.42212 484.11401 488.92883 493.26132 501.92633 509.61823 518.2832 522.61572 530.30762 538.9726 543.30505 548.11987 561.59973 575.07959 582.77148 591.43646 596.25128 603.94318 608.758 616.44989">(especially Kotlin and dependency injection) and writing software that had an immediate </tspan></text>
<text
             id="text62"
             style="font-variant:normal;font-weight:normal;font-size:17.32999992px;font-family:TimesNewRomanPSMT;-inkscape-font-specification:TimesNewRomanPSMT;writing-mode:lr-tb;fill:#000000;fill-opacity:1;fill-rule:nonzero;stroke:none"
             transform="translate(96,351.36197)"><tspan
               id="tspan60"
               y="0"
               x="0 4.8148193 18.294647 26.959641 34.65152 42.343399 47.158218 51.490707 55.823196 61.594208 65.926697 78.441864 87.106857 92.877869 101.54286 109.23474 117.89973 122.23222 130.89722 139.56221 143.8947 148.70952 157.37451 165.06639 169.39888 179.03699 186.72887 195.39386 206.95282 214.6447 220.41571 229.0807 233.41319 238.22801 245.91989 253.61177 267.09161 271.4241 279.11597 287.78094 296.44592 300.77841 305.59323 313.2851 320.97699 329.64197 334.45679 342.14868 350.81366 355.14615 359.96097 368.62598 376.31787 381.13269 386.90369 391.23618 396.05099 403.74286 411.43475 420.09973 428.76471 433.57953 441.27142 448.96332 453.77814 458.11063 466.77563 474.46753 483.13251 487.94733 492.27982 499.97168 508.63666 517.30164 521.63416 526.44897 531.26379 538.95569 547.62067 555.31256 560.12738 566.87152 571.20398 579.86896 588.53394 592.86646 597.68127 606.34625 614.03815">impact. I worked on the PayCard team and tackled their technical debt and tickets on the </tspan></text>
<text
             id="text66"
             style="font-variant:normal;font-weight:normal;font-size:17.32999992px;font-family:TimesNewRomanPSMT;-inkscape-font-specification:TimesNewRomanPSMT;writing-mode:lr-tb;fill:#000000;fill-opacity:1;fill-rule:nonzero;stroke:none"
             transform="translate(96,371.29361)"><tspan
               id="tspan64"
               y="0"
               x="0 8.6649933 16.356873 24.048752 32.713745 37.528564 46.193558 54.858551 59.19104 63.523529 74.109375 82.774368 90.466248 94.798737 108.27856 115.97044 120.78526 129.45026 135.22127 140.03609 144.85091 153.5159 157.84839 166.51338 172.28439 176.61688 190.09671 198.7617 203.09419 207.90901 212.72383 226.20366 233.89554 238.22803 250.74319 258.43506 265.1792 269.51169 276.25583 284.92084 292.61273 301.27771 306.09253 310.42502 316.19604 323.88794 329.65894 337.35083 345.04272 349.85754 358.52252 364.29352 369.10834 377.77332 386.43829 390.77078 398.46265 407.12762 415.7926 420.12509 432.64026 438.41125 443.22607 448.04089 452.85571 461.52069 470.18567 474.51816 483.18317 490.87506 503.39023 507.72272 517.36084 526.02582 530.84064 537.58478 545.27667 551.04767 555.38013 563.07202 571.737 580.40198 587.14612 595.8111 609.29089 616.98279 622.75378">backlog. The majority of my time was spent refactoring and writing new Pulsar consumer </tspan></text>
<text
             id="text70"
             style="font-variant:normal;font-weight:normal;font-size:17.32999992px;font-family:TimesNewRomanPSMT;-inkscape-font-specification:TimesNewRomanPSMT;writing-mode:lr-tb;fill:#000000;fill-opacity:1;fill-rule:nonzero;stroke:none"
             transform="translate(96,391.22525)"><tspan
               id="tspan68"
               y="0"
               x="0 7.6918793 16.356873 25.021866 32.713745 37.046234 41.861053 50.526047 58.217926 63.032745 67.365234 72.180054 77.951065 82.765884 91.430878 100.09587 107.78775 113.55876 120.3029 124.63539 132.32727 139.07141 143.4039 151.09578 159.76077 166.50491 171.31973 179.98473 193.46455 201.15643 206.92744 213.67159 218.00407 224.74821 229.56303 238.22803 246.89302 251.22551 259.8905 268.55548 272.88797 278.659 287.32397 293.09497 297.42746 302.24228 310.90729 318.59918 322.93167 332.56976 340.26166 348.92664 360.4856 368.17749 373.94849 382.61346 386.94595 393.69009 401.38196 407.15295 415.81793 420.63275 428.32465 436.01654 440.34903 448.04089 456.70587 465.37085 469.70334 477.3952 486.06018 493.75208 502.41705 511.08203 518.77393 523.10645 527.92126 536.58624 544.27814 549.09296 554.86395 559.19641 565.94055 573.63245 578.44727 583.26208 588.0769 596.74188 605.40686 612.151 616.48352">code that triggers as customers sign up for the PayCard service and change their settings. </tspan></text>
<text
             id="text74"
             style="font-variant:normal;font-weight:normal;font-size:17.32999992px;font-family:TimesNewRomanPSMT;-inkscape-font-specification:TimesNewRomanPSMT;writing-mode:lr-tb;fill:#000000;fill-opacity:1;fill-rule:nonzero;stroke:none"
             transform="translate(96,411.15689)"><tspan
               id="tspan72"
               y="0"
               x="0 5.7710114 10.1035 15.874512 23.566391 29.337402 37.029282 44.721161 49.53598 58.200974 63.971985 71.663864 80.328857 84.661346 89.476166 98.141159 105.83304 110.16553 117.85741 126.5224 135.18739 142.87927 147.21176 152.02658 160.69157 165.02406 173.68906 180.4332 188.12508 192.45757 197.27238 205.93738 213.62926 217.96175 226.62674 234.31862 242.98361 251.64861 256.46344 264.15533 269.92633 274.25882 282.92383 290.61572 295.43054 300.24536 307.93726 313.70825 322.37323 326.70572 331.03821 339.70319 345.47418 353.16608 360.85797 369.52295 374.33777 383.00275 391.66772 396.00021 404.66522 413.3302 417.66269 425.35455 429.68704 434.50186 442.19373 447.65161 456.31662 464.00848 468.34097 474.112 482.77698 491.44196 499.13385 503.94867 508.76349 517.42847 526.09344 530.4259 542.94104 547.75586 552.57068 561.23566 565.56812 579.04797 586.73987 595.40485 604.06982">I refactored the code to use the handler pattern, breaking up a large function with many </tspan></text>
<text
             id="text78"
             style="font-variant:normal;font-weight:normal;font-size:17.32999992px;font-family:TimesNewRomanPSMT;-inkscape-font-specification:TimesNewRomanPSMT;writing-mode:lr-tb;fill:#000000;fill-opacity:1;fill-rule:nonzero;stroke:none"
             transform="translate(96,431.08853)"><tspan
               id="tspan76"
               y="0"
               x="0 7.6918793 16.356873 25.021866 33.686859 38.501678 43.316498 48.131317 56.79631 65.461304 73.153183 77.968002 84.712143 89.044632 93.859451 102.52444 107.33926 116.00426 120.33675 133.81657 142.48157 147.29639 152.11121 156.92603 165.59102 170.40584 178.09772 182.43021 188.20122 193.01604 197.83086 205.52274 212.26688 216.59937 220.93185 231.5177 240.18269 244.99751 251.74165 256.07416 264.73914 270.51013 278.20203 285.89392 290.70874 295.52356 304.18854 308.52103 313.33585 322.00085 329.69275 335.46375 343.15564 350.84753 357.59167 365.28357 373.94855 378.28104 383.09586 391.76086 399.45276 403.78525 409.55627 417.24817 424.94006 433.60504 441.29694 449.96191 454.77673 459.59155 464.40637 469.22119 477.88617 482.70099 496.18082 504.84583 513.5108 522.17578 526.9906 534.6825 540.45349 545.26831 550.08313 558.74811 563.08057 571.74554 577.51654 581.849 586.66382 595.3288 603.02069">conditionals into multiple files. This greatly increased the readability/modularity of the </tspan></text>
<text
             id="text82"
             style="font-variant:normal;font-weight:normal;font-size:17.32999992px;font-family:TimesNewRomanPSMT;-inkscape-font-specification:TimesNewRomanPSMT;writing-mode:lr-tb;fill:#000000;fill-opacity:1;fill-rule:nonzero;stroke:none"
             transform="translate(96,451.02017)"><tspan
               id="tspan80"
               y="0"
               x="0 7.6918793 16.356873 25.021866 32.713745 37.046234 41.378723 49.070602 57.735596 66.400589 70.733078 78.424957 82.757446 89.501587 98.16658 105.85846 111.62947 119.32135 127.98634 132.31883 137.13365 145.79865 150.61346 158.30534 164.07635 169.84737 177.53925 185.23112 192.923 197.25549 205.92049 213.61237 218.42719 230.94235 238.63423 246.32611 254.9911 259.32361 264.13843 272.80341 280.4953 284.82779 293.4928 301.18469 309.84967 318.51465 323.32947 331.02136 336.79236 343.5365 347.86899 352.68381 366.16364 374.82861 380.59961 389.26459 397.92957 405.62146 414.28644 418.61893 423.43375 432.09875 439.79065 444.12314 449.89417 457.58606 465.27795 473.94293 478.75775 487.42273 495.11462 501.85876 508.60291 512.93542 518.70642 527.3714 533.1424 537.47485 545.16675 553.83173 561.52362 570.1886 578.85358 586.54547 590.87793 595.69275 604.35773">code, and a shared interface between the handlers improved the readiness for change in </tspan></text>
<text
             id="text86"
             style="font-variant:normal;font-weight:normal;font-size:17.32999992px;font-family:TimesNewRomanPSMT;-inkscape-font-specification:TimesNewRomanPSMT;writing-mode:lr-tb;fill:#000000;fill-opacity:1;fill-rule:nonzero;stroke:none"
             transform="translate(96,470.95181)"><tspan
               id="tspan84"
               y="0"
               x="0 4.8148193 13.479813 21.171692 25.504181 31.275192 39.940186 44.755005 53.419998 59.19101 66.882889 71.215378 75.547867 81.318878 85.651367 94.31636 101.0605 108.75238 117.41737 121.74986 126.56468 135.22968 142.92155 147.25404 153.99818 161.69006 175.16989 182.86177 187.19426 195.85925 203.55113 208.36595 213.18077 220.87265 226.64366 235.30865 239.64114 244.45596 253.12096 257.45343 269.9686 275.73962 280.55444 285.36926 293.06116 297.39365 305.08551 313.75049 322.41547 330.10736 334.43985 339.25467 347.91968 355.61157 360.42639 364.75888 372.45074 381.11572 389.7807 396.52484 405.18982 418.66965 426.36151 433.10565 437.43814 443.20917 448.98016 457.64514 471.12497 475.45746 483.14935 487.48184 496.14685 503.83875 516.35388 520.6864 530.32452 538.9895 543.80432 550.54846 558.24036 564.01135 568.34387 573.15869 581.82367 590.48865 595.30347 602.99536 607.32788 612.1427 620.80768">the future. I used the same pattern to write code that consumes from a new Pulsar topic to </tspan></text>
<text
             id="text90"
             style="font-variant:normal;font-weight:normal;font-size:17.32999992px;font-family:TimesNewRomanPSMT;-inkscape-font-specification:TimesNewRomanPSMT;writing-mode:lr-tb;fill:#000000;fill-opacity:1;fill-rule:nonzero;stroke:none"
             transform="translate(96,490.88345)"><tspan
               id="tspan88"
               y="0"
               x="0 7.6918793 16.356873 24.048752 32.713745 41.378738 49.070618 53.403107 61.094986 69.759979 76.50412 81.318939 89.983932 103.46376 111.15564 116.92665 121.25914 128.00328 135.69516 140.50998 145.3248 150.13962 158.80461 167.4696 174.21375 178.54623 183.36105 192.02605 196.35854 207.48595 223.84282 233.48093 237.81342 250.32858 258.99359 267.65857 275.35046 288.83029 297.4953 310.01047 321.56943 325.90192 330.23441 342.74957 351.41455 360.07953 364.89435 369.70917 374.52399 383.18896 391.85394 399.54584 404.36066 409.17548 416.71506 421.04755 425.38004 431.15106 435.48355 447.99872 456.6637 462.43469 471.09967 478.79156 487.45654 491.78903 504.3042 509.11902 513.93384 522.59882 526.93127 538.49023 546.18213 553.87402 561.56592 566.38074 570.71326 575.52808 584.19305">change customer settings in AWS DynamoDB. Additionally, I worked with React in </tspan></text>
<text
             id="text94"
             style="font-variant:normal;font-weight:normal;font-size:17.32999992px;font-family:TimesNewRomanPSMT;-inkscape-font-specification:TimesNewRomanPSMT;writing-mode:lr-tb;fill:#000000;fill-opacity:1;fill-rule:nonzero;stroke:none"
             transform="translate(96,510.81509)"><tspan
               id="tspan92"
               y="0"
               x="0 9.3757935 18.040787 26.70578 34.397659 44.035767 51.727646 57.498657 62.313477 70.97847 75.793289 80.125778 88.790771 97.455765 101.78825 109.48013 113.81262 121.5045 130.16949 136.91364 141.72845 150.39345 163.87328 171.56516 176.98923 182.76024 188.53125 196.22313 203.91501 208.72983 217.39482 226.05981 230.3923 240.03041 248.07768 260.59283 264.92532 270.69635 279.36133 288.02631 296.69128 301.02377 306.7948 311.60962 320.2746 327.96649 334.71063 339.04312 343.37561 350.11975 357.81165 365.50354 374.16852 379.93951 384.75433 389.56915 398.23413 402.56662 407.38144 414.12558 420.86972 429.53473 437.22662 443.97076 448.30325 452.63574 461.30072 469.9657 478.63068 484.40167 492.09357 500.75854 505.57336 514.23834 522.90332 527.23584 532.05066 540.71564 545.0481 556.60706 564.29895 571.99084 579.68274 584.49756 588.83008 597.49506 606.16003 611.93103 616.26355">TypeScript on a customer-facing SPA (bug fixes, security issues, upgrading to React 18), </tspan></text>
<text
             id="text98"
             style="font-variant:normal;font-weight:normal;font-size:17.32999992px;font-family:TimesNewRomanPSMT;-inkscape-font-specification:TimesNewRomanPSMT;writing-mode:lr-tb;fill:#000000;fill-opacity:1;fill-rule:nonzero;stroke:none"
             transform="translate(96,530.74677)"><tspan
               id="tspan96"
               y="0"
               x="0 7.6918793 16.356873 25.021866 29.354355 35.125366 39.457855 52.937683 61.602676 70.26767 77.959549 86.624542 90.957031 95.771851 104.43684 109.25166 116.94354 122.71455 131.37955 139.07143 143.88625 148.21873 160.7339 170.37201 176.14302 180.47551 188.16739 195.85927 200.67409 205.48891 212.23305 216.56554 222.33655 228.10756 236.77255 250.25238 254.58487 263.24988 270.94177 279.60675 285.37775 293.06964 300.76154 308.45343 313.26825 320.96014 329.62512 333.95761 338.77243 347.43744 351.76993 360.43494 368.12683 380.642 384.97449 391.71863 399.41052 405.18152 413.8465 418.66132 426.35321 434.0451 440.78925 445.12173 449.45422 461.96939 470.6344 475.44922 483.14111 491.80609 496.13858 500.9534 514.43323 523.09821 528.8692 537.53418 546.19916 553.89105 562.55603 566.88855 571.70337 580.36835 588.06024">and I moved internal API calls from deprecated to new services, which improved the </tspan></text>
<text
             id="text102"
             style="font-variant:normal;font-weight:normal;font-size:17.32999992px;font-family:TimesNewRomanPSMT;-inkscape-font-specification:TimesNewRomanPSMT;writing-mode:lr-tb;fill:#000000;fill-opacity:1;fill-rule:nonzero;stroke:none"
             transform="translate(96,550.67841)"><tspan
               id="tspan100"
               y="0"
               x="0 6.7441406 11.55896 19.250839 27.915833 32.730652 37.545471 42.360291 47.17511 55.840103 60.172592 68.837585 74.608597 78.941086 83.755905 92.420898 100.11278 104.44527 109.26009 116.95197 124.64384 138.12367 142.93849 149.68263 154.01512 160.75926 168.45114 174.22215 182.88715 187.70197 195.39384 203.08572 209.82986 214.16235">stability of the team’s services. </tspan></text>
<text
             id="text106"
             style="font-variant:normal;font-weight:normal;font-size:17.32999992px;font-family:TimesNewRomanPSMT;-inkscape-font-specification:TimesNewRomanPSMT;writing-mode:lr-tb;fill:#000000;fill-opacity:1;fill-rule:nonzero;stroke:none"
             transform="translate(96,590.54169)"><tspan
               id="tspan104"
               y="0"
               x="0 5.7710114 10.1035 18.768494 26.460373 35.125366 42.817245 47.149734 54.841614 59.656433 66.400574 75.065567 79.398056 91.913223 100.57822 106.34923 115.01422 122.7061 131.37109 135.70358 143.39546 150.1396 154.47209 162.16397 166.49646 173.2406 181.90559 187.67661 192.49142 205.00659 212.69847 218.46948 226.16136 230.49385 238.18573 246.85072 255.51572 260.33054 268.99554 276.68744 284.37933 290.15033 294.48282 299.29764 307.96265 312.77747 320.46936 326.24036 334.90533 339.23782 345.00885 353.67383 359.44482 363.77731 373.41541 379.1864 386.8783 394.57019 410.92706 419.59204 427.28394 434.97583 439.79065 444.12314 448.45563 456.14752 460.48001 472.03897 480.70398 494.18381 501.87567 509.56757 516.31171 521.12653 525.45898 533.15088 541.81586 555.29565 563.96063 571.65253 580.3175 587.85706 592.18958 596.52209 602.29309">I have also worked as a software engineer intern for FreeWheel, a Comcast company. I </tspan></text>
<text
             id="text110"
             style="font-variant:normal;font-weight:normal;font-size:17.32999992px;font-family:TimesNewRomanPSMT;-inkscape-font-specification:TimesNewRomanPSMT;writing-mode:lr-tb;fill:#000000;fill-opacity:1;fill-rule:nonzero;stroke:none"
             transform="translate(96,610.47333)"><tspan
               id="tspan108"
               y="0"
               x="0 7.6918793 13.462891 21.15477 28.846649 33.661469 41.353348 50.018341 54.35083 62.042709 66.375198 75.040192 83.705185 92.370178 100.06206 104.87688 109.20937 115.95351 123.64539 129.4164 138.08139 142.89621 150.58809 158.27997 162.61246 167.42728 176.09227 180.42476 188.11664 195.80852 204.47351 209.28833 217.95332 223.72433 231.41621 235.7487 243.44058 252.10558 258.84973 263.66455 267.99704 281.47687 289.16876 293.98358 299.75458 304.5694 312.26129 316.59378 329.10895 338.74707 344.51807 351.26221 355.5947 361.36572 370.0307 375.8017 380.13419 384.94901 393.61401 401.30591 405.6384 418.15356 424.89771 432.5896 438.3606 447.02557 454.71747 459.53229 467.22418 471.55667 476.37149 484.06335 491.75525 505.23508 509.56757 513.90002 526.41516 535.08014 539.89496 547.58685 556.25183 560.58435 568.27625 576.94122 584.63312 589.44794 598.11292 605.80481 613.4967 620.24084">created a novel service to capture cost metric KPIs for the Userdata team, which analyzes </tspan></text>
<text
             id="text114"
             style="font-variant:normal;font-weight:normal;font-size:17.32999992px;font-family:TimesNewRomanPSMT;-inkscape-font-specification:TimesNewRomanPSMT;writing-mode:lr-tb;fill:#000000;fill-opacity:1;fill-rule:nonzero;stroke:none"
             transform="translate(96,630.40497)"><tspan
               id="tspan112"
               y="0"
               x="0 8.6649933 17.329987 32.73912 37.071609 41.886429 50.551422 54.883911 62.57579 71.240784 79.905777 88.57077 96.26265 101.07747 105.40996 112.1541 120.81909 128.51097 137.17596 145.84096 150.17345 154.50594 160.27695 168.94194 173.27443 181.93942 187.71043 196.37543 204.06731 209.83832 214.17081 218.98563 227.65062 231.98311 239.67499 245.446 253.13788 260.82977 265.64459 273.33649 277.66898 282.4838 291.1488 298.8407 303.17319 309.91733 317.60919 323.38019 332.04517 336.85999 344.55188 352.24377 356.57626 360.90875 366.67975 371.01224 379.67725 387.36914 396.03412 400.36661 405.18143 413.84644 418.17892 426.84393 433.58807 441.27997 445.61246 450.42728 458.11914 465.81104 474.47601 483.14099 491.80597 496.62079 505.28577 513.95074 518.76556 526.45746 533.2016 537.53406 544.2782 552.94318 560.63507 569.30005 573.63257 581.32446 588.0686">$3M in annual spend. In order to create the service, I had to use technologies such as </tspan></text>
<text
             id="text118"
             style="font-variant:normal;font-weight:normal;font-size:17.32999992px;font-family:TimesNewRomanPSMT;-inkscape-font-specification:TimesNewRomanPSMT;writing-mode:lr-tb;fill:#000000;fill-opacity:1;fill-rule:nonzero;stroke:none"
             transform="translate(96,650.33661)"><tspan
               id="tspan116"
               y="0"
               x="0 9.6381073 18.303101 26.968094 39.483261 45.254272 50.069092 57.760971 66.425964 74.117844 78.450333 82.782822 93.910233 110.26711 119.90521 124.2377 133.87581 141.56769 147.3387 156.00369 160.81851 168.51039 176.20227 182.94641 187.2789 193.04991 204.60887 209.42369 218.08868 226.75368 235.41867 250.38779 258.07965 262.89447 270.58636 279.25134 283.58383 287.91632 297.55444 306.21942 310.55191 314.8844 325.47025 337.02921 348.58817 352.92065 357.25314 367.83899 380.35416 389.99225 395.76324 400.09573 404.42822 416.94339 422.40131 431.06631 439.73132 451.29028 463.80545 468.13794 472.47043 484.9856 493.65057 502.31555 510.00745 515.77844 524.44342 532.13531 536.95013 544.64203 551.38617 555.71863">Snowflake, AWS Services (CloudWatch, S3, ECR, EKS), ArgoCD, Kubernetes, </tspan></text>
<text
             id="text122"
             style="font-variant:normal;font-weight:normal;font-size:17.32999992px;font-family:TimesNewRomanPSMT;-inkscape-font-specification:TimesNewRomanPSMT;writing-mode:lr-tb;fill:#000000;fill-opacity:1;fill-rule:nonzero;stroke:none"
             transform="translate(96,670.26825)"><tspan
               id="tspan120"
               y="0"
               x="0 9.3757935 17.067673 22.838684 28.609695 36.301575 42.072586 50.737579 56.508591 69.988419 74.320908 78.653397 86.345276 95.010269 103.67526 108.00775 120.52292 129.18791 136.87979 145.54478 153.23666 158.05148 162.38397 166.71646 172.48747 176.81996 184.51184 193.17683 197.99165 202.80647 210.49835 219.16335 227.82834 233.59935 241.29123 246.10605 253.79793 262.46292 266.79541 279.31058 284.1254 288.94022 297.60522 301.93771 306.75253 315.41754 323.10944 327.44193 337.08002 348.63898 359.22482 363.55731 368.37213 376.06403 383.75592 397.23575 401.56824 409.26013 417.92511 426.59009 430.92258 438.61444 444.38544 452.07733 459.76923 464.58405 472.27594 480.94092 485.27341 492.96527 501.63025 505.96274 514.62775 523.29272 530.03687 537.72876 543.49976 552.16473 559.85663 568.52161 573.33643 578.15125 582.96606 587.78088 596.44586">Terraform, and Docker. I collaborated with the SRE team and created an observability </tspan></text>
<text
             id="text126"
             style="font-variant:normal;font-weight:normal;font-size:17.32999992px;font-family:TimesNewRomanPSMT;-inkscape-font-specification:TimesNewRomanPSMT;writing-mode:lr-tb;fill:#000000;fill-opacity:1;fill-rule:nonzero;stroke:none"
             transform="translate(96,690.19989)"><tspan
               id="tspan124"
               y="0"
               x="0 8.6649933 16.356873 23.101013 31.766006 40.431 49.095993 56.787872 62.558884 71.223877 75.556366 84.221359 92.886353 97.218842 109.73401 115.50502 123.1969 128.96791 136.65979 145.32478 153.01666 157.34915 165.04103 169.85585 178.52084 187.18584 195.85083 200.18332 208.84831 213.66313 218.47795 223.29277 228.10759 235.79947 240.61429 249.27928 257.94427 262.27676 269.96863 274.30112 283.93921 289.71021 298.37518 311.85501 319.54688 324.36169 333.02667 340.71857 349.38354 356.12769 360.46017 369.12518 377.79016 384.5343 393.19928 397.53177 406.19678 413.88867 418.70349 426.39539 438.91055 446.60242 454.142 458.47449 462.80698 475.32214 482.06628 486.8811 495.54608 503.23798 507.57047 513.34149 519.11249 527.77747 541.25732 545.58984 550.40466 559.06964 563.88446 570.6286 574.96106 579.77588 587.46777 592.92566 601.5907 609.28259 615.05359">dashboard on Grafana cloud utilizing a Prometheus push gateway. Aside from this larger </tspan></text>
<text
             id="text130"
             style="font-variant:normal;font-weight:normal;font-size:17.32999992px;font-family:TimesNewRomanPSMT;-inkscape-font-specification:TimesNewRomanPSMT;writing-mode:lr-tb;fill:#000000;fill-opacity:1;fill-rule:nonzero;stroke:none"
             transform="translate(96,710.13153)"><tspan
               id="tspan128"
               y="0"
               x="0 8.6649933 14.436005 23.100998 27.915817 35.607697 43.299576 48.114395 52.446884 56.779373 62.550385 66.882874 73.627014 82.292007 89.983887 98.64888 103.4637 107.79619 114.54033 123.20532 136.68515 144.37703 148.70952 153.52434 158.33916 171.81898 179.51086 183.84335 189.61436 197.30624 203.07726 210.76913 218.46101 223.27583 231.94083 237.71184 242.52666 251.19165 259.85663 264.18912 275.31653 291.6734 301.31152 305.64401 316.22986 323.92175 337.40158 346.06659 354.73157 362.42346 366.75595 374.44781 383.11279 391.77777 399.46967 403.80215 416.31732 421.13214 425.94696 434.61194 438.94443 443.75925 452.42426 460.11615 464.44864 470.21967 477.91156 485.60345 490.41827 499.08325 504.85425 513.51923 517.85168 526.51666 534.20856 540.9527 545.76752 554.4325 563.09747 567.42993 576.09491 583.7868 588.60162 593.41644 601.10834 606.87933 615.54431">project, I spent some time refactoring AWS Lambda code with the factory design pattern </tspan></text>
<text
             id="text134"
             style="font-variant:normal;font-weight:normal;font-size:17.32999992px;font-family:TimesNewRomanPSMT;-inkscape-font-specification:TimesNewRomanPSMT;writing-mode:lr-tb;fill:#000000;fill-opacity:1;fill-rule:nonzero;stroke:none"
             transform="translate(96,730.06317)"><tspan
               id="tspan132"
               y="0"
               x="0 7.6918793 16.356873 25.021866 29.354355 37.046234 45.711227 54.376221 59.19104 64.962051 69.776871 78.441864 87.106857 91.921677 99.613556 108.27855 112.61104 117.42586 126.09085 130.42334 138.11522 146.78021 151.1127 155.92752 164.59251 169.40733 177.09921 182.87022 191.53522 199.2271 204.04192 208.3744 221.85423 229.54611 234.36093 240.13194 244.94676 252.63864 256.97113 261.78595 266.60077 275.26575 281.03674 288.72864 294.49963 302.03922 306.3717 310.70419 319.3692 328.03418 332.849 341.51398 345.84647 354.51147 360.28247 364.61496 377.13013 385.7951 390.60992 398.30182 406.9668 411.29929 418.99115 424.76215 432.45404 436.78653 445.45154 453.14343 457.95825 466.62323 475.28821 479.6207 487.31256 495.97754 503.66943 512.33441 517.14923 524.84113 533.5061 537.83862 542.65344 551.31842 556.13324 564.79822">and contributed to an internal metric library, both of which are being adapted into </tspan></text>
<text
             id="text138"
             style="font-variant:normal;font-weight:normal;font-size:17.32999992px;font-family:TimesNewRomanPSMT;-inkscape-font-specification:TimesNewRomanPSMT;writing-mode:lr-tb;fill:#000000;fill-opacity:1;fill-rule:nonzero;stroke:none"
             transform="translate(96,749.99481)"><tspan
               id="tspan136"
               y="0"
               x="0 8.6649933 14.436005 23.100998 31.765991 40.430984 48.122864 52.937683 57.752502 66.417496 75.082489 79.414978 88.079971 93.850983 102.51598 107.3308 115.02267 122.71455 127.52937 134.27351 138.606 142.93849 153.52434 162.18933 167.00415 173.74829 178.08078 185.77266 194.43765 203.10265 210.79453 216.56554 221.38036 229.07224 237.73723 245.42911 253.12099 257.45349 270.93332 278.62518 287.29016 294.98206 299.31454 312.79437 320.48627 324.81876 333.48376 341.17566 346.94666 355.61163 359.94412 367.63599 376.30096 389.78079 395.55182 404.2168 409.98779 414.80261 422.49451 431.15948 435.9743 443.6662 447.99869 460.51385 465.32867 470.14349 478.80847 483.14096 490.83282 498.52472 506.21661 513.90851 522.57349 527.38831 532.20312 540.8681 549.53308 553.8656 558.68042 563.49524 576.9751 581.78992 586.60474 594.29663 602.96161">production projects. This experience made me very comfortable with accepting limited </tspan></text>
<text
             id="text142"
             style="font-variant:normal;font-weight:normal;font-size:17.32999992px;font-family:TimesNewRomanPSMT;-inkscape-font-specification:TimesNewRomanPSMT;writing-mode:lr-tb;fill:#000000;fill-opacity:1;fill-rule:nonzero;stroke:none"
             transform="translate(96,769.92645)"><tspan
               id="tspan140"
               y="0"
               x="0 8.6649933 14.436005 23.100998 27.915817 35.607697 43.299576 48.114395 52.446884 61.111877 69.776871 74.59169 83.256683 90.948563 99.613556 107.30544 114.99731 119.3298 127.02168 135.68668 144.35167 148.68416 157.34915 165.04103 171.78517 176.59999 185.26498 193.92998 198.7448 207.40979 216.07478 220.40727 225.22209 233.88708 241.57896 245.91145 254.57645 262.26831 269.01245 273.82727 278.15976 284.9039 293.56891 298.38373 307.04871 311.86353 316.67834 325.34332 334.0083 338.34079 344.11182 348.44431 356.13617 364.80115 373.46613 378.28094 386.94592 391.27841 398.97028 407.63525 421.11508 428.80695 433.13943 441.80444 450.46942 454.80191 467.31708 472.1319 476.94672 485.61169 489.94418">project guidance and designing the best solution I could come up with. </tspan></text>
<text
             id="text146"
             style="font-variant:normal;font-weight:normal;font-size:17.32999992px;font-family:TimesNewRomanPSMT;-inkscape-font-specification:TimesNewRomanPSMT;writing-mode:lr-tb;fill:#000000;fill-opacity:1;fill-rule:nonzero;stroke:none"
             transform="translate(96,809.78973)"><tspan
               id="tspan144"
               y="0"
               x="0 10.585846 19.250839 26.942719 35.607712 44.272705 48.605194 57.270187 65.935181 74.600174 78.932663 84.703674 93.368668 99.139679 103.47217 111.16405 119.82904 128.49403 135.23817 140.05299 148.71799 156.40987 162.18088 166.9957 175.66069 184.32568 188.65817 202.138 209.82988 214.16237 219.93338 228.59837 234.36938 238.70187 243.51669 252.18169 256.99652 263.74066 268.07315 276.73816 285.40314 292.14728 296.9621 301.77692 306.59174 315.25671 323.92169 328.25418">Thank you for considering me for this position. </tspan></text>
<text
             id="text150"
             style="font-variant:normal;font-weight:normal;font-size:17.32999992px;font-family:TimesNewRomanPSMT;-inkscape-font-specification:TimesNewRomanPSMT;writing-mode:lr-tb;fill:#000000;fill-opacity:1;fill-rule:nonzero;stroke:none"
             transform="translate(96,849.65302)"><tspan
               id="tspan148"
               y="0"
               x="0 11.55896 19.250839 25.99498 30.809799 35.142288 46.701248 54.393127 63.058121 70.75 76.521011 85.186005 91.930145 96.262634">Best Regards, </tspan></text>
<text
             id="text154"
             style="font-variant:normal;font-weight:normal;font-size:17.32999992px;font-family:TimesNewRomanPSMT;-inkscape-font-specification:TimesNewRomanPSMT;writing-mode:lr-tb;fill:#000000;fill-opacity:1;fill-rule:nonzero;stroke:none"
             transform="translate(96,889.5163)"><tspan
               id="tspan152"
               y="0"
               x="0 6.7441406 15.409134 22.153275 26.968094 34.659973 43.324966 47.657455 63.066589 70.758469 86.167603 93.859482 102.52448 110.21635 123.69618 132.36118">Josiah McMenamy </tspan></text>
<path
             id="path156"
             style="fill:none;stroke:#1155cc;stroke-width:1;stroke-linecap:butt;stroke-linejoin:miter;stroke-miterlimit:10;stroke-dasharray:none;stroke-opacity:1"
             d="M 96,154 H 266" /></g></g></g></g></svg>