<?xml version="1.0" encoding="UTF-8" standalone="no"?>
<!DOCTYPE svg PUBLIC "-//W3C//DTD SVG 1.1//EN" "http://www.w3.org/Graphics/SVG/1.1/DTD/svg11.dtd">
<svg xmlns="http://www.w3.org/2000/svg" xmlns:xlink="http://www.w3.org/1999/xlink" version="1.1" width="612pt" height="792pt" viewBox="0 0 612 792">
<g enable-background="new">
<clipPath id="cp0">
<path transform="matrix(.24,0,0,.24,0,0)" d="M 0 0 L 2550 0 L 2550 3300 L 0 3300 Z " fill-rule="evenodd"/>
</clipPath>
<g clip-path="url(#cp0)">
<path transform="matrix(.75,0,0,.75,0,0)" d="M 0 0 L 816 0 L 816 2111 L 0 2111 Z " fill="#ffffff"/>
</g>
<clipPath id="cp1">
<path transform="matrix(.24,0,0,.24,0,0)" d="M 0 0 L 2550 0 L 2550 3296.875 L 0 3296.875 Z " fill-rule="evenodd"/>
</clipPath>
<g clip-path="url(#cp1)">
<path transform="matrix(.75,0,0,.75,0,0)" d="M 0 0 L 816 0 L 816 1056 L 0 1056 Z " fill="#ffffff"/>
<text xml:space="preserve" transform="matrix(.75 0 0 .75 0 0)" font-size="17.33" font-family="TimesNewRomanPSMT"><tspan y="112.18229" x="96 96 102.74414 111.409137 118.153278 122.968097 130.65998 139.32497 143.65746 159.06659 166.75847 182.1676 189.85948 198.52448 206.21636 219.69618"> Josiah McMenamy</tspan></text>
<text xml:space="preserve" transform="matrix(.75 0 0 .75 0 0)" font-size="17.33" font-family="TimesNewRomanPSMT"><tspan y="112.18229" x="228.36118"> </tspan></text>
<text xml:space="preserve" transform="matrix(.75 0 0 .75 0 0)" font-size="17.33" font-family="TimesNewRomanPSMT"><tspan y="135.10369" x="96 96 101.77101 110.436008 119.101 127.76599 133.537 137.86949 146.53449 155.19948 163.86447 169.63549 178.30048 186.96547 195.63047"> (916) 572-9078</tspan></text>
<text xml:space="preserve" transform="matrix(.75 0 0 .75 0 0)" font-size="17.33" font-family="TimesNewRomanPSMT"><tspan y="135.10369" x="204.29546"> </tspan></text>
<text xml:space="preserve" transform="matrix(.75 0 0 .75 0 0)" font-size="17.33" font-family="TimesNewRomanPSMT"><tspan y="180.94646" x="96 96 108.51517 116.20705 123.898929 129.66994 134.00243 146.5176 151.33242 157.10343 161.91825 170.58324 179.24823 183.58072 198.98986 206.68173 215.34673 223.0386 231.7036 239.39548 244.47261"> Dear Hiring Manager,</tspan></text>
<text xml:space="preserve" transform="matrix(.75 0 0 .75 0 0)" font-size="17.33" font-family="TimesNewRomanPSMT"><tspan y="180.94646" x="248.8051"> </tspan></text>
<text xml:space="preserve" transform="matrix(.75 0 0 .75 0 0)" font-size="17.33" font-family="TimesNewRomanPSMT"><tspan y="226.78923" x="96 96 101.77101 106.1035 114.76849 122.46037 131.12537 138.81725 143.14974 150.84162 155.1741 163.8391 171.53098 179.22286 187.88785 192.22034 197.03516 205.70015 210.51497 218.20685 223.97786 231.66974 238.41388 243.2287 247.56119 252.376 261.04103 265.3735 273.06538 280.75727 288.44917 297.11415 310.59397 319.25898 324.0738 328.8886 335.63276 344.29774 349.11256 357.77754 366.4425 370.775 378.46687 387.13185 400.61167 409.27668 414.0915 421.7834 430.44837 434.78086 439.59568 447.28755 454.03169 462.69667 469.4408 473.7733 486.28846 491.10328 495.9181 504.58308 508.91557 515.65969 524.3247 530.0957 534.9105 547.42568 555.11758 560.88858 568.58047 572.91299 577.7278 586.3928 590.72537 598.41726 604.18826 611.8801 619.572 624.38687 632.07876 636.41128 643.1554 651.8204 665.3002 672.99209 677.8069 686.47189 691.2867 699.95169"> I have a deep interest in accomplishing complex tasks with software to create something</tspan></text>
<text xml:space="preserve" transform="matrix(.75 0 0 .75 0 0)" font-size="17.33" font-family="TimesNewRomanPSMT"><tspan y="226.78923" x="708.6165"> </tspan></text>
<text xml:space="preserve" transform="matrix(.75 0 0 .75 0 0)" font-size="17.33" font-family="TimesNewRomanPSMT"><tspan y="249.71062" x="96 96 100.81482 109.47981 117.17169 121.98651 126.319 134.01088 141.70276 150.36775 154.70024 163.36524 171.05712 179.7221 187.41399 191.74648 199.43836 203.77085 210.51499 215.3298 223.9948 232.65979 237.47461 243.24562 248.06044 255.75232 263.4442 272.1092 276.924 281.2565 286.07133 299.55116 308.21614 315.90803 323.5999 328.41474"> that can have a significant impact.</tspan></text>
<text xml:space="preserve" transform="matrix(.75 0 0 .75 0 0)" font-size="17.33" font-family="TimesNewRomanPSMT"><tspan y="249.71062" x="332.7472"> </tspan></text>
<text xml:space="preserve" transform="matrix(.75 0 0 .75 0 0)" font-size="17.33" font-family="TimesNewRomanPSMT"><tspan y="295.55339" x="96 96 111.409137 120.07413 124.40662 137.88645 146.55144 153.29558 158.1104 162.44289 168.2139 175.90578 183.59766 191.28954 199.95453 204.76935 209.10184 216.79372 225.45871 234.1237 241.81558 247.5866 252.40142 260.0933 268.7583 276.4502 284.1421 288.47459 300.98976 308.68165 315.42579 319.75828 327.45014 332.26496 336.59745 346.23554 352.00657 359.69847 367.39036 383.74723 392.4122 400.1041 407.796 412.6108 416.9433 421.2758 428.96769 433.30018 444.85914 453.52415 467.00398 474.69584 482.38774 489.13188 493.9467 498.27919 505.97105 514.636 528.11587 536.7809 544.4728 553.13778 560.6773 565.00979 569.3423 581.8574 590.52249 598.21438 603.98538 611.67727 616.0097 621.7807 626.1132 634.7782 640.5492 648.2411 655.933 660.7478 665.5626"> My most recent experience was at FreeWheel, a Comcast company, where I greatly</tspan></text>
<text xml:space="preserve" transform="matrix(.75 0 0 .75 0 0)" font-size="17.33" font-family="TimesNewRomanPSMT"><tspan y="295.55339" x="674.22756"> </tspan></text>
<text xml:space="preserve" transform="matrix(.75 0 0 .75 0 0)" font-size="17.33" font-family="TimesNewRomanPSMT"><tspan y="318.47477" x="96 96 103.69188 112.35687 117.17169 125.836688 134.50168 142.19356 150.85855 155.19104 160.00586 167.69774 175.38962 181.16063 189.82563 194.64044 203.30544 211.97043 216.30292 224.96791 232.65979 245.17496 249.50745 254.32227 262.98725 267.80207 276.46705 285.13203 291.87617 296.20866 303.9005 312.5655 321.23048 325.56297 333.25483 341.9198 349.6117 354.4265 359.24134 366.93324 375.5982 384.26319 389.078 397.74299 406.40797 410.74046 424.22029 432.88526 439.6294 447.3213 452.1361 457.9071 462.2396 466.57209 472.34309 476.67558 484.36744 490.13844 497.83033 505.52223 510.33705 518.02896 526.6939 531.02639 538.71829 543.0508 551.7158 560.3808 569.0458 576.7377 581.5525 585.885 592.62918 600.32107 606.09207 614.757 619.57186 627.26376 634.9556 639.2881 644.1029 652.7679 657.10037 664.79226 672.48416 681.1491 685.9639 694.6289 700.3999"> enjoyed learning new things and challenging myself. I created a novel service to capture</tspan></text>
<text xml:space="preserve" transform="matrix(.75 0 0 .75 0 0)" font-size="17.33" font-family="TimesNewRomanPSMT"><tspan y="318.47477" x="708.0918"> </tspan></text>
<text xml:space="preserve" transform="matrix(.75 0 0 .75 0 0)" font-size="17.33" font-family="TimesNewRomanPSMT"><tspan y="341.39616" x="96 96 103.69188 112.35687 119.10101 123.91583 128.24832 141.72815 149.42003 154.23485 160.00586 164.82068 172.51256 176.84505 189.36022 198.99832 204.76934 211.51348 215.84597 221.61698 230.28197 236.05298 240.38547 245.20029 253.86528 261.55717 265.88966 278.40483 285.14897 292.84083 298.61183 307.2768 314.9687 319.7835 327.4754 331.8079 336.6227 344.31459 352.00645 365.48628 369.81877 374.15126 386.6664 395.3314 400.1462 407.8381 416.50309 420.83558 428.52745 437.1924 444.8843 449.69914 458.3641 466.056 473.7479 480.49205 484.82453 493.48954 502.1545 517.5636 521.8961 526.71096 535.376 539.7085 547.4004 556.06539 564.73037 573.3953 581.0872 585.90206 590.2345 596.97866 605.6437 613.3356 622.00057 630.6655 634.998 639.3305 645.1015 653.7665 658.09896 666.7639 672.5349 681.1999 688.8918 694.6628 698.9953 703.8101"> cost metric KPIs for the Userdata team, which analyzes $3M in annual spend. In order to</tspan></text>
<text xml:space="preserve" transform="matrix(.75 0 0 .75 0 0)" font-size="17.33" font-family="TimesNewRomanPSMT"><tspan y="341.39616" x="712.47506"> </tspan></text>
<text xml:space="preserve" transform="matrix(.75 0 0 .75 0 0)" font-size="17.33" font-family="TimesNewRomanPSMT"><tspan y="364.31755" x="96 96 103.69188 109.46289 117.15477 124.84665 129.66147 137.35335 141.68584 146.50066 155.16565 162.85753 167.19002 173.93416 181.62604 187.39705 196.06204 200.87686 208.56874 216.26062 220.59311 224.9256 230.69661 235.0291 243.69409 251.38597 260.05097 264.38346 269.19828 277.86329 282.19578 290.86079 297.60493 305.2968 309.6293 314.44413 322.136 329.82789 338.49287 347.15785 355.8228 360.63764 369.3026 377.9676 382.7824 390.4743 397.21846 401.55094 408.29508 416.96009 424.65199 433.31697 437.64945 445.3413 452.08546 456.41795 466.05604 474.721 483.386 495.90116 501.67219 506.487 514.1789 522.8439 530.53579 534.8683 539.2008 550.32827 566.6851 576.32327 580.65579 590.2938 597.9857 603.7567 612.4217 617.2365 624.9284 632.6203"> create the service, I had to use technologies such as Snowflake, AWS Services</tspan></text>
<text xml:space="preserve" transform="matrix(.75 0 0 .75 0 0)" font-size="17.33" font-family="TimesNewRomanPSMT"><tspan y="364.31755" x="639.3643"> </tspan></text>
<text xml:space="preserve" transform="matrix(.75 0 0 .75 0 0)" font-size="17.33" font-family="TimesNewRomanPSMT"><tspan y="387.23893" x="96 96 101.77101 113.32997 118.14479 126.809787 135.47478 144.13977 159.10889 166.80077 171.61559 179.30747 187.97246 192.30495 196.63744 206.27555 214.94054 219.27303 223.60552 234.19136 245.75032 257.30928 261.64176 265.97425 276.5601 289.07527 298.71339 304.48439 308.81687 313.14936 325.66453 331.12245 339.7874 348.4524 360.01136 372.52653 376.859 381.1915 393.70668 402.37165 411.03663 418.72853 424.4995 433.1645 440.85639 445.6712 453.3631 460.10725 464.43974 468.77223 476.4641 485.1291 493.79408 498.12657 510.64173 519.3067 526.9986 535.6636 543.35549 548.1703 552.5028 556.8353 562.6063 566.93887 574.63076 583.2957 588.11056 592.92538 600.61727 609.2822 617.9472 623.7182 631.4101 636.2249 643.9168 652.5818 656.91427 669.4294 674.2442 679.059 687.724 692.05648 696.8713 705.53628"> (CloudWatch, S3, ECR, EKS), ArgoCD, Kubernetes, and Docker. I collaborated with the</tspan></text>
<text xml:space="preserve" transform="matrix(.75 0 0 .75 0 0)" font-size="17.33" font-family="TimesNewRomanPSMT"><tspan y="387.23893" x="713.2281"> </tspan></text>
<text xml:space="preserve" transform="matrix(.75 0 0 .75 0 0)" font-size="17.33" font-family="TimesNewRomanPSMT"><tspan y="410.1603" x="96 96 105.63811 117.19707 127.78291 132.1154 136.93022 144.6221 152.31398 165.79381 170.1263 177.81818 186.48317 195.14817 199.48065 207.17253 212.94355 220.63542 228.3273 233.14212 240.834 249.499 253.83148 261.52339 270.18836 274.52085 283.18586 291.85084 298.59498 306.28688 312.05787 320.72285 328.41474 337.0797 341.89454 346.70936 351.52418 356.339 365.00398 369.33647 378.00148 385.69337 392.4375 401.10249 409.76747 418.43244 426.12434 431.89533 440.5603 444.8928 453.5578 462.22279 466.55528 479.07044 484.84144 492.53334 498.30433 505.99623 514.6612 522.3531 526.68557 534.37747 539.19229 547.85726 556.5222 565.1872 569.51968 578.1847 582.9995 587.81436 592.62918 597.444 605.13589 609.9507 618.61569 627.28067 631.61318"> SRE team and created an observability dashboard on Grafana cloud utilizing a</tspan></text>
<text xml:space="preserve" transform="matrix(.75 0 0 .75 0 0)" font-size="17.33" font-family="TimesNewRomanPSMT"><tspan y="410.1603" x="639.30508"> </tspan></text>
<text xml:space="preserve" transform="matrix(.75 0 0 .75 0 0)" font-size="17.33" font-family="TimesNewRomanPSMT"><tspan y="433.0817" x="96 96 105.63811 111.40912 120.07411 133.55394 141.24582 146.06064 154.72563 162.41751 171.0825 177.82665 182.15914 190.82413 199.48912 206.23326 214.89826 219.23075 227.89574 235.58762 240.40244 248.09432 260.6095 268.3014 275.84095 280.17344 284.50593 297.0211 303.76524 308.58006 317.24507 324.93696 329.26945 335.04048 340.81147 349.47645 362.95628 367.28877 372.10359 380.7686 385.5834 392.32756 396.66004 401.47486 409.16673 414.62464 423.28965 430.98155 436.75254 441.08503 449.75004 455.52104 464.186 469.00083 476.69273 484.3846 489.19944 493.53193 497.8644 503.6354 507.9679 514.71206 523.3771 531.069 539.73397 544.54879 548.8812 555.62539 564.2904 577.77029 585.46218 589.7947 594.6095 599.4243 612.9042 620.59609 624.9285 630.6995 638.3914 644.1624 651.8543 659.5462 664.361 673.026 678.797 683.6118 692.2768"> Prometheus push gateway. Aside from this larger project, I spent some time refactoring</tspan></text>
<text xml:space="preserve" transform="matrix(.75 0 0 .75 0 0)" font-size="17.33" font-family="TimesNewRomanPSMT"><tspan y="433.0817" x="700.9416"> </tspan></text>
<text xml:space="preserve" transform="matrix(.75 0 0 .75 0 0)" font-size="17.33" font-family="TimesNewRomanPSMT"><tspan y="456.00309" x="96 96 107.12741 123.48428 133.12239 137.45488 148.04073 155.7326 169.21244 177.87743 186.54242 194.2343 198.56679 206.25867 214.92366 223.58866 231.28054 235.61302 248.12819 252.94301 257.7578 266.4228 270.75529 275.5701 284.2351 291.927 296.2595 302.03053 309.7224 317.4143 322.22914 330.8941 336.6651 345.33009 349.66258 358.32759 366.01948 372.7636 377.57844 386.2434 394.9084 399.24089 407.90589 415.59779 420.4126 425.22743 432.9193 438.6903 447.3553 451.68778 459.37965 468.04463 476.7096 481.04209 488.73396 497.39894 506.0639 510.87873 516.6497 521.46456 530.1295 538.7945 543.6093 551.3012 559.9662 564.2987 569.1135 577.77859 582.1111 589.803 598.46798 602.8004 607.61526 616.2803 621.0951 628.787 634.558 643.22299 650.91488 655.7297 660.06216 673.542 681.2339 686.0487 691.8197 696.6345"> AWS Lambda code with the factory design pattern and contributed to an internal metric</tspan></text>
<text xml:space="preserve" transform="matrix(.75 0 0 .75 0 0)" font-size="17.33" font-family="TimesNewRomanPSMT"><tspan y="456.00309" x="704.3263"> </tspan></text>
<text xml:space="preserve" transform="matrix(.75 0 0 .75 0 0)" font-size="17.33" font-family="TimesNewRomanPSMT"><tspan y="478.92448" x="96 96 100.81482 105.62964 114.29463 120.06564 127.75752 133.52854 141.0681 145.40059 149.73308 158.39807 167.06307 171.87789 180.54288 184.87537 193.54036 199.31137 203.64386 216.15903 224.82402 229.63884 237.33072 245.99571 250.3282 258.02009 263.79109 271.48298 275.81547 284.48048 292.17237 296.98719 305.65217 314.31715 318.64964 326.3415 335.00648 342.69837 351.36335 356.17817 363.87004 372.535 376.8675 381.6823 390.34733 395.16215 403.82713 408.1596 416.82463 422.5956 431.2606 439.92558 448.59056 456.28245 461.09727 465.91209 474.57707 483.24205 487.57453 496.23954 502.01054 510.6755 515.49038 523.18228 530.87417 535.68899 542.4331 546.7656 551.09817 561.68399 570.349 575.1638 581.90798 586.2405 593.9324 602.59738 611.2623 618.9542 624.7252 629.54006 637.23196 645.8969 653.5888 661.2807 665.61318 679.093 686.7849 695.4499"> library, both of which are being adapted into production projects. This experience made</tspan></text>
<text xml:space="preserve" transform="matrix(.75 0 0 .75 0 0)" font-size="17.33" font-family="TimesNewRomanPSMT"><tspan y="478.92448" x="703.14169"> </tspan></text>
<text xml:space="preserve" transform="matrix(.75 0 0 .75 0 0)" font-size="17.33" font-family="TimesNewRomanPSMT"><tspan y="501.84587" x="96 96 109.47983 117.17171 121.504199 130.16919 137.86107 143.63208 152.29708 156.62957 164.32144 172.98644 186.46627 192.23728 200.90227 206.67328 211.4881 219.17998 227.84497 232.65979 240.35167 244.68416 257.19935 262.01417 266.82899 275.49397 279.82646 287.5183 295.2102 302.9021 310.594 319.25898 324.0738 328.8886 337.5536 346.21858 350.55107 355.3659 360.18074 373.66056 378.47538 383.2902 390.98207 399.64704 403.97953 412.64454 418.41554 427.0805 431.89533 439.58723 447.2791 452.09394 456.42643 465.09144 473.7564 478.57124 487.2362 494.9281 503.59309 511.28498 518.97689 523.3093 531.0012 539.6662 548.3312 552.6637 561.32876 569.0206 575.7648 580.5796 589.24459 597.90957 602.72439 611.38937 620.0543 624.3868 629.2016 637.8666 645.5585 649.8909 658.5559 666.2478 672.99197"> me very comfortable with accepting limited project guidance and designing the best</tspan></text>
<text xml:space="preserve" transform="matrix(.75 0 0 .75 0 0)" font-size="17.33" font-family="TimesNewRomanPSMT"><tspan y="501.84587" x="677.8067"> </tspan></text>
<text xml:space="preserve" transform="matrix(.75 0 0 .75 0 0)" font-size="17.33" font-family="TimesNewRomanPSMT"><tspan y="524.7673" x="96 96 102.74414 111.409137 116.22395 124.88895 129.70377 134.51859 143.18358 151.84857 156.18106 161.95207 166.28456 173.97644 182.64144 191.30643 196.12125 204.78624 209.11873 216.81061 225.4756 238.95543 246.64731 250.9798 259.64479 268.30976 272.64225 285.1574 289.97224 294.78706 303.45204"> solution I could come up with.</tspan></text>
<text xml:space="preserve" transform="matrix(.75 0 0 .75 0 0)" font-size="17.33" font-family="TimesNewRomanPSMT"><tspan y="524.7673" x="307.78456"> </tspan></text>
<text xml:space="preserve" transform="matrix(.75 0 0 .75 0 0)" font-size="17.33" font-family="TimesNewRomanPSMT"><tspan y="570.61007" x="96 96 101.77101 106.1035 114.76849 122.46037 131.12537 138.81725 143.14974 150.84162 155.65644 162.40058 171.06557 175.39806 187.91323 196.57822 202.34923 211.01422 218.7061 227.3711 231.70359 239.39546 246.1396 250.47209 258.16398 262.49647 269.2406 277.90559 283.67658 288.4914 301.00657 308.69844 314.46943 322.16133 326.4938 334.18568 342.85066 351.51564 356.33045 364.99546 372.68736 380.37925 386.15025 390.48274 395.29756 403.96257 408.77738 416.46928 422.24028 430.90525 435.23774 441.00877 449.67375 455.44474 459.77723 471.33619 476.151 482.89515 490.587 499.25199 503.58448 510.3286 518.99368 525.7378 530.5526 538.2445 551.72439 558.4685 562.801 567.13357 573.8777 582.5427 590.2346 597.9265 602.74136 608.5123 613.32717 621.01907 628.71096 633.52578 638.3406 647.00558 651.3381 656.1529 664.8179 672.50979 677.3246 683.0956 687.42807 697.06619 704.75808"> I have also worked as a software engineer intern for Cisco systems, specifically their San</tspan></text>
<text xml:space="preserve" transform="matrix(.75 0 0 .75 0 0)" font-size="17.33" font-family="TimesNewRomanPSMT"><tspan y="570.61007" x="713.423"> </tspan></text>
<text xml:space="preserve" transform="matrix(.75 0 0 .75 0 0)" font-size="17.33" font-family="TimesNewRomanPSMT"><tspan y="593.53146" x="96 96 102.74414 111.409137 118.153278 125.84515 130.17765 137.86952 146.53452 155.19951 159.532 170.11785 178.78284 187.44783 196.11283 204.77782 213.44281 217.7753 232.74442 240.4363 249.10129 259.68714 268.3521 272.6846 277.49943 285.19129 292.88319 306.363 313.10716 317.43965 321.77214 332.35798 341.02296 345.83778 352.5819 356.9144 362.6854 371.35038 376.1652 383.8571 388.18959 396.85459 404.54649 413.21147 420.90336 425.23585 438.71568 446.40757 450.74006 459.40507 465.17607 472.86796 480.55986 485.37467 489.70716 497.39903 506.064 514.729 522.4209 528.1919 533.0067 540.6986 549.3636 557.0555 564.7474 569.07986 581.595 590.25997 596.03097 604.6959 609.51077 618.1757 626.8407 631.17318 635.988 644.65298 648.9854 656.6773 661.0098 667.75399 672.5688 678.3398"> Jose and London WebEx teams. This role gave me great experience working in a Jira</tspan></text>
<text xml:space="preserve" transform="matrix(.75 0 0 .75 0 0)" font-size="17.33" font-family="TimesNewRomanPSMT"><tspan y="593.53146" x="686.03176"> </tspan></text>
<text xml:space="preserve" transform="matrix(.75 0 0 .75 0 0)" font-size="17.33" font-family="TimesNewRomanPSMT"><tspan y="616.4528" x="96 96 104.66499 110.436008 115.250827 123.91582 131.6077 140.27269 144.60518 152.29706 160.96205 169.62705 174.44187 180.21288 188.87787 197.54286 211.02269 218.71457 227.37957 232.19438 236.52687 240.85936 248.55124 257.21626 265.88124 270.69606 276.46705 281.28187 289.94685 298.61183 303.42665 308.24147 316.90644 325.5714 329.9039 337.59577 346.26075 354.92573 359.2582 366.95008 375.61506 380.42988 385.2447 392.93659 401.60157 410.26655 416.03755 423.72944 428.54426 433.35908 442.02406 450.68904 455.0215 467.53669 472.3515 477.16633 485.8313 490.1638 498.8288 503.64363 512.3086 520.0005 525.7715 532.5156 536.84817 541.66299 550.328 554.6605 559.47537 568.1404 575.8323 580.1648 588.82986 594.6008 603.2658 611.9308 620.59579 624.9283 629.2608 635.0318 639.3643 646.10848 654.77346 662.46536 671.1303 675.9451 680.27767 693.7575"> driven environment, contributing and collaborating with others in the group. I spent my</tspan></text>
<text xml:space="preserve" transform="matrix(.75 0 0 .75 0 0)" font-size="17.33" font-family="TimesNewRomanPSMT"><tspan y="616.4528" x="702.4224"> </tspan></text>
<text xml:space="preserve" transform="matrix(.75 0 0 .75 0 0)" font-size="17.33" font-family="TimesNewRomanPSMT"><tspan y="639.3742" x="96 96 100.81482 105.62964 119.10947 126.801349 131.13384 138.82572 147.4907 156.1557 163.84758 172.51258 180.20446 185.01927 193.68427 202.34926 206.68175 211.49657 220.16156 227.85344 232.66826 238.43927 242.77176 247.58658 256.2516 261.0664 268.7583 274.5293 283.19429 290.88618 295.701 300.03349 308.6985 313.5133 321.2052 329.87019 338.53517 347.20014 353.94429 358.7591 363.5739 371.2658 375.5983 380.41313 389.07814 397.7431 402.55793 406.8904 412.66145 424.2204 431.9123 436.7271 441.54194 445.87443 455.851 461.622 469.3139 477.0058 485.67079 493.36268 499.7768 505.5478 509.88029 518.5453 527.21029 531.5427 537.3137 542.12857 550.7935 555.60836 564.2733 572.9383 577.27078 585.9358 594.60079 603.26577 610.0099 614.34237 622.03427 630.6992"> time enhancing their internal diagnostic tool &#x2018;Call Tracker&#x2019; by fixing bugs and</tspan></text>
<text xml:space="preserve" transform="matrix(.75 0 0 .75 0 0)" font-size="17.33" font-family="TimesNewRomanPSMT"><tspan y="639.3742" x="639.36428"> </tspan></text>
<text xml:space="preserve" transform="matrix(.75 0 0 .75 0 0)" font-size="17.33" font-family="TimesNewRomanPSMT"><tspan y="662.2956" x="96 96 103.69188 112.35687 125.8367 134.5017 139.31652 147.00839 151.82321 156.63803 165.30303 173.96802 178.3005 184.07152 191.7634 199.45528 204.2701 212.93509 218.7061 226.39798 230.73047 236.50148 244.19336 252.85836 261.52336 269.2152 275.95936 280.77418 287.5183 291.8508 296.1833 308.69847 317.36347 325.05537 329.38786 334.20268 341.89454 347.35246 356.01747 363.70936 368.04185 376.70686 382.47785 391.14283 395.95765 403.64955 411.34144 416.15626 420.48875 426.25978 430.59226 439.25727 447.92225 456.58723 464.2791 470.0501 474.86494 483.5299 492.1949 500.85987 505.19236 517.7075 525.3994 532.14358 536.4761 549.95596 558.6209 567.2859 572.1007 580.7657 589.43069 593.7632 605.32217 613.01406 617.82888 622.6437 626.9762 636.95278 642.72378 650.41567 658.10757 666.7725 674.4644 680.2354 684.5679 690.33889 696.10989 704.77487"> completing feature requests. One large project I undertook was moving Call Tracker from</tspan></text>
<text xml:space="preserve" transform="matrix(.75 0 0 .75 0 0)" font-size="17.33" font-family="TimesNewRomanPSMT"><tspan y="662.2956" x="718.2545"> </tspan></text>
<text xml:space="preserve" transform="matrix(.75 0 0 .75 0 0)" font-size="17.33" font-family="TimesNewRomanPSMT"><tspan y="685.217" x="96 96 107.55896 116.22395 124.88895 129.70377 136.4479 141.26273 147.03374 154.72562 163.39061 167.7231 176.38809 180.72058 185.5354 194.2004 198.53289 210.09185 218.75684 227.42183 232.23665 238.98079 243.79561 249.56662 257.25849 265.92347 270.25596 278.92097 283.25346 290.9453 297.68946 302.02195 314.5371 322.229 327.04383 331.85865 336.19114 343.883 350.62715 354.95964 363.6246 370.36875 375.18357 383.84855 392.51353 396.846 405.51103 413.2029 425.71809 430.05058 435.82157 443.51347 451.20536 456.02018 464.68516 470.45616 478.14805 484.89219 489.22468 497.88969 503.66069 507.99317 519.5521 528.21719 536.88217 541.69699 548.4411 553.2559 559.0269 566.7188 575.3838 579.7163 584.5311 593.19619 597.5287 604.2728 609.08767 617.7526 622.56747 627.38229 635.07418 642.76608 647.0985 651.9133 660.5783"> Bootstrap 3 to Bootstrap 4 as well as using new features of Bootstrap to stylize the</tspan></text>
<text xml:space="preserve" transform="matrix(.75 0 0 .75 0 0)" font-size="17.33" font-family="TimesNewRomanPSMT"><tspan y="685.217" x="668.2701"> </tspan></text>
<text xml:space="preserve" transform="matrix(.75 0 0 .75 0 0)" font-size="17.33" font-family="TimesNewRomanPSMT"><tspan y="708.13839" x="96 96 108.51517 116.20705 124.87204 133.53704 141.22891 149.8939 157.58579 161.91828 166.25077 181.6599 190.32489 194.65738 207.17255 215.83754 221.60855 230.27355 234.60604 242.29792 247.11273 251.92755 260.59254 273.1077 280.79957 289.46455 293.79704 307.27687 314.96876 319.30125 324.11607 332.78108 337.11357 341.92839 349.62025 357.3121 363.0831 371.74809 376.08058 383.77244 392.4374 401.1024 409.76737 414.58219 418.91468 424.6857 430.4567 439.12168 447.78666 452.60148 456.93397 464.62583 473.2908 481.95579 486.28828 494.95329 502.64518 511.31016 519.0021 523.8169 532.4819 541.14688 554.6267 562.3186 570.9836 575.7984 580.13088 592.646 597.4608 602.27566 610.9406 615.2731 622.0172 629.7091 638.3741 646.066 650.39846 658.09036 666.7553"> webpage. My work allowed me to learn about front end development with Java and</tspan></text>
<text xml:space="preserve" transform="matrix(.75 0 0 .75 0 0)" font-size="17.33" font-family="TimesNewRomanPSMT"><tspan y="708.13839" x="675.4203"> </tspan></text>
<text xml:space="preserve" transform="matrix(.75 0 0 .75 0 0)" font-size="17.33" font-family="TimesNewRomanPSMT"><tspan y="731.05978" x="96 96 108.51517 115.25931 127.774478 140.28964 144.62213 148.95462 161.46979 170.13478 174.9496 179.76442 187.4563 191.78879 199.48067 204.29549 211.03963 219.70462 224.03711 228.85193 237.51692 245.2088 253.8738 259.6448 268.3098 276.9748 282.7458 290.43769 295.2525 300.06733 308.7323 317.39729 321.72978 328.4739 337.13893 350.61875 358.3106 362.6431 371.30809 378.99998 386.69187 395.35685 399.68934 407.3812 416.04618 424.71116 429.04365 437.70866 445.40055 454.06553 461.75743 466.57225 475.2372 483.9022 497.38203 505.07389 513.7389 518.5537 522.8862 535.40139 540.2162 545.031 553.696 558.02847 567.6665 576.3315 581.1463 589.8113 598.47628 607.14126 611.4737 615.8062 621.5772 625.9097 634.5747 642.2666 647.0814 651.89627 659.58816 668.2531 675.945 680.2775 685.09237 693.7573"> AJAX, while also incorporating some back end development with Python. I believe the</tspan></text>
<text xml:space="preserve" transform="matrix(.75 0 0 .75 0 0)" font-size="17.33" font-family="TimesNewRomanPSMT"><tspan y="731.05978" x="701.4493"> </tspan></text>
<text xml:space="preserve" transform="matrix(.75 0 0 .75 0 0)" font-size="17.33" font-family="TimesNewRomanPSMT"><tspan y="753.98117" x="96 96 104.66499 109.47981 118.144809 126.8098 131.62462 140.28961 144.6221 153.2871 160.97898 166.74999 171.5648 179.25669 187.92168 192.25417 200.91916 208.61104 213.42586 222.09085 227.86186 235.55374 239.88623 248.55123 254.32224 258.65473 272.13456 280.79957 285.13206 297.64723 306.3122 312.0832 320.74818 325.08067 337.59584 342.41065 347.22547 352.04029 356.37278 365.03776 372.72966 377.06214 384.754 392.4459 399.19004 404.00486 408.81968 417.48466 421.81715 429.509 438.17399 446.83897 451.65379 456.4686 464.1605 472.82548 477.15797 481.97279 490.6378 494.97029 499.7851 508.4501 513.2649 520.00906 524.34158 533.0066 541.6716 548.4157 553.2305 558.04537 562.86019 571.52517 580.1901 584.5226 593.1876 600.8795 608.5714 616.2633 624.9283 631.6724 639.3643 643.6968 649.4678 653.8003 662.4653 670.15719 674.972 683.63699 691.32888 699.99386 704.3263"> highly varied nature of my work will be easily applied to this position because I gained a</tspan></text>
<text xml:space="preserve" transform="matrix(.75 0 0 .75 0 0)" font-size="17.33" font-family="TimesNewRomanPSMT"><tspan y="753.98117" x="712.0182"> </tspan></text>
<text xml:space="preserve" transform="matrix(.75 0 0 .75 0 0)" font-size="17.33" font-family="TimesNewRomanPSMT"><tspan y="776.9025" x="96 96 108.51517 113.32999 121.99498 129.68686 134.01935 142.68434 148.45536 156.14723 163.83911 172.5041 177.31893 185.98392 190.3164 198.9814 204.75241 209.0849 217.7499 226.41489 235.07988 247.59505 252.40987 260.10176 268.76673 277.4317 285.1236 289.4561 294.2709 302.9359 307.2684 316.9065 325.57148 331.34248 336.1573 348.67247 356.36433 362.1353 369.8272 374.1597 384.74555 393.41053 402.0755 406.89033 415.5553 423.2472 430.9391 436.71009 441.5249 450.18989 458.85487"> wide breadth of knowledge in Software Engineering.</tspan></text>
<text xml:space="preserve" transform="matrix(.75 0 0 .75 0 0)" font-size="17.33" font-family="TimesNewRomanPSMT"><tspan y="776.9025" x="463.1874"> </tspan></text>
<text xml:space="preserve" transform="matrix(.75 0 0 .75 0 0)" font-size="17.33" font-family="TimesNewRomanPSMT"><tspan y="822.7453" x="96 96 106.585849 115.25084 122.94272 131.60771 140.2727 144.6052 153.27019 161.93518 170.60018 174.93267 180.70368 189.36867 195.13968 199.47217 207.16405 215.82904 224.49404 231.23818 236.053 244.71799 252.40987 258.18089 262.9957 271.6607 280.32569 284.65818 298.138 305.8299 310.16239 315.9334 324.5984 330.3694 334.70188 339.5167 348.1817 352.99653 359.74067 364.07316 372.73817 381.40315 388.14729 392.9621 397.77693 402.59175 411.2567 419.9217"> Thank you for considering me for this position.</tspan></text>
<text xml:space="preserve" transform="matrix(.75 0 0 .75 0 0)" font-size="17.33" font-family="TimesNewRomanPSMT"><tspan y="822.7453" x="424.25419"> </tspan></text>
<text xml:space="preserve" transform="matrix(.75 0 0 .75 0 0)" font-size="17.33" font-family="TimesNewRomanPSMT"><tspan y="868.5881" x="96 96 107.55896 115.25084 121.99498 126.8098 131.14229 142.70125 150.39313 159.05812 166.75 172.52101 181.186 187.93015"> Best Regards,</tspan></text>
<text xml:space="preserve" transform="matrix(.75 0 0 .75 0 0)" font-size="17.33" font-family="TimesNewRomanPSMT"><tspan y="868.5881" x="192.26264"> </tspan></text>
<text xml:space="preserve" transform="matrix(.75 0 0 .75 0 0)" font-size="17.33" font-family="TimesNewRomanPSMT"><tspan y="914.43087" x="96 96 102.74414 111.409137 118.153278 122.968097 130.65998 139.32497 143.65746 159.06659 166.75847 182.1676 189.85948 198.52448 206.21636 219.69618"> Josiah McMenamy</tspan></text>
<text xml:space="preserve" transform="matrix(.75 0 0 .75 0 0)" font-size="17.33" font-family="TimesNewRomanPSMT"><tspan y="914.43087" x="228.36118"> </tspan></text>
</g>
</g>
</svg>
