<?xml version="1.0" encoding="UTF-8" standalone="no"?>
<svg
   xmlns:dc="http://purl.org/dc/elements/1.1/"
   xmlns:cc="http://creativecommons.org/ns#"
   xmlns:rdf="http://www.w3.org/1999/02/22-rdf-syntax-ns#"
   xmlns:svg="http://www.w3.org/2000/svg"
   xmlns="http://www.w3.org/2000/svg"
   viewBox="0 0 816 1056"
   height="1056"
   width="816"
   xml:space="preserve"
   id="svg2"
   version="1.1"><metadata
     id="metadata8"><rdf:RDF><cc:Work
         rdf:about=""><dc:format>image/svg+xml</dc:format><dc:type
           rdf:resource="http://purl.org/dc/dcmitype/StillImage" /></cc:Work></rdf:RDF></metadata><defs
     id="defs6"><clipPath
       id="clipPath18"
       clipPathUnits="userSpaceOnUse"><path
         style="clip-rule:evenodd"
         id="path16"
         d="M 0,0 H 2550 V 3296.875 H 0 Z" /></clipPath></defs><g
     transform="matrix(0.31999998,0,0,0.31999998,0,2.64e-5)"
     id="g10"><g
       id="g12"><g
         clip-path="url(#clipPath18)"
         id="g14"><g
           transform="scale(3.125)"
           id="g20"><path
             id="path22"
             style="fill:#ffffff;fill-opacity:1;fill-rule:nonzero;stroke:none"
             d="M 0,0 H 816 V 1056 H 0 Z" /><text
             id="text26"
             style="font-variant:normal;font-weight:bold;font-size:24px;font-family:TimesNewRomanPS;-inkscape-font-specification:TimesNewRomanPS-BoldMT;writing-mode:lr-tb;fill:#000000;fill-opacity:1;fill-rule:nonzero;stroke:none"
             transform="translate(310.34766,70.40625)"><tspan
               id="tspan24"
               y="0"
               x="0 12 24 33.339844 40.007812 52.007812 65.355469 71.355469 94.007812 104.66016 127.3125 137.96484 151.3125 163.3125 183.30469 195.30469">Josiah McMenamy </tspan></text>
<text
             id="text30"
             style="font-variant:normal;font-weight:normal;font-size:14.65999985px;font-family:TimesNewRomanPSMT;-inkscape-font-specification:TimesNewRomanPSMT;writing-mode:lr-tb;fill:#000000;fill-opacity:1;fill-rule:nonzero;stroke:none"
             transform="translate(77.785316,89.290367)"><tspan
               id="tspan28"
               y="0"
               x="0 9.7780914 17.108078 22.813156 26.886169 34.216156 41.546143 45.211136 48.876129 61.911209 72.498184 76.163177 79.098038">Boston, MA | </tspan></text>
<text
             id="text34"
             style="font-variant:normal;font-weight:normal;font-size:14.65999985px;font-family:TimesNewRomanPSMT;-inkscape-font-specification:TimesNewRomanPSMT;writing-mode:lr-tb;fill:#1155cc;fill-opacity:1;fill-rule:nonzero;stroke:none"
             transform="translate(160.54834,89.290367)"><tspan
               id="tspan32"
               y="0"
               x="0 4.0730133 11.403 17.108078 21.181091 27.687897 35.017883 39.090897 50.493912 57.000717 68.403732 81.904099 89.234085 100.6371 107.14391 111.21692 115.28993 118.95493 125.46173 132.79172 144.19473">josiahjmcm@gmail.com </tspan></text>
<text
             id="text38"
             style="font-variant:normal;font-weight:normal;font-size:14.65999985px;font-family:TimesNewRomanPSMT;-inkscape-font-specification:TimesNewRomanPSMT;writing-mode:lr-tb;fill:#000000;fill-opacity:1;fill-rule:nonzero;stroke:none"
             transform="translate(308.40808,89.290367)"><tspan
               id="tspan36"
               y="0"
               x="0 2.9348602 6.5998535 13.92984 21.259827 28.589813 33.471695 40.801682 48.131668 55.461655 60.343536 67.673523 75.00351 82.333496 89.663483 93.328476 96.263336">| 916-572-9078 | </tspan></text>
<text
             id="text42"
             style="font-variant:normal;font-weight:normal;font-size:14.65999985px;font-family:TimesNewRomanPSMT;-inkscape-font-specification:TimesNewRomanPSMT;writing-mode:lr-tb;fill:#1155cc;fill-opacity:1;fill-rule:nonzero;stroke:none"
             transform="translate(408.3364,89.290367)"><tspan
               id="tspan40"
               y="0"
               x="0 4.0730133 8.1460266 15.476013 22.806 29.312805 36.642792 40.715805 48.045792 51.710785 58.21759 65.547577 76.950592 81.023605 85.096619 92.426605 96.499619 100.57263 107.90262 113.6077 117.68071 124.18752 131.5175 136.39938 147.8024 154.3092">linkedin.com/in/josiah-mc </tspan></text>
<text
             id="text46"
             style="font-variant:normal;font-weight:normal;font-size:14.65999985px;font-family:TimesNewRomanPSMT;-inkscape-font-specification:TimesNewRomanPSMT;writing-mode:lr-tb;fill:#000000;fill-opacity:1;fill-rule:nonzero;stroke:none"
             transform="translate(566.31061,89.290367)"><tspan
               id="tspan44"
               y="0"
               x="0 2.9348602">| </tspan></text>
<text
             id="text50"
             style="font-variant:normal;font-weight:normal;font-size:14.65999985px;font-family:TimesNewRomanPSMT;-inkscape-font-specification:TimesNewRomanPSMT;writing-mode:lr-tb;fill:#1155cc;fill-opacity:1;fill-rule:nonzero;stroke:none"
             transform="translate(572.91046,89.290367)"><tspan
               id="tspan48"
               y="0"
               x="0 10.586975 17.093781 24.423767 28.08876 39.491776 43.564789 47.637802 51.302795 57.809601 65.139587 72.469574 76.542587 80.615601 87.945587 93.650665 97.723679 104.23048 111.56047 122.96349 129.47029 133.5433 144.13028 154.71725 165.30423">web.mit.edu/josiahmc/www </tspan></text>
<text
             id="text54"
             style="font-variant:normal;font-weight:bold;font-size:16px;font-family:TimesNewRomanPS;-inkscape-font-specification:TimesNewRomanPS-BoldMT;writing-mode:lr-tb;fill:#000000;fill-opacity:1;fill-rule:nonzero;stroke:none"
             transform="translate(48,121.19922)"><tspan
               id="tspan52"
               y="0"
               x="0 10.671875 22.226562 33.78125 45.335938 55.703125 66.375 72.601562 85.046875 96.601562">EDUCATION </tspan></text>
<path
             id="path56"
             style="fill:none;stroke:#888888;stroke-width:1;stroke-linecap:butt;stroke-linejoin:miter;stroke-miterlimit:10;stroke-dasharray:none;stroke-opacity:1"
             d="M 46,130.5 H 770" /><text
             id="text60"
             style="font-variant:normal;font-weight:bold;font-size:14.65999985px;font-family:TimesNewRomanPS;-inkscape-font-specification:TimesNewRomanPS-BoldMT;writing-mode:lr-tb;fill:#000000;fill-opacity:1;fill-rule:nonzero;stroke:none"
             transform="translate(48,150.61848)"><tspan
               id="tspan58"
               y="0"
               x="0 13.836792 19.54187 28.231918 31.896912 35.561905 43.715088 50.221893 58.375076 65.705063 73.035049 77.108063 80.773056 88.103043 92.984924 96.649918 106.42801 114.58119 121.91118 125.98419 134.13737 140.64418 147.15099 153.65779 157.7308 165.88399 173.21397">MIT, School of Engineering </tspan></text>
<text
             id="text64"
             style="font-style:italic;font-variant:normal;font-size:14.65999985px;font-family:TimesNewRomanPS;-inkscape-font-specification:TimesNewRomanPS-ItalicMT;writing-mode:lr-tb;fill:#000000;fill-opacity:1;fill-rule:nonzero;stroke:none"
             transform="translate(224.87897,150.61848)"><tspan
               id="tspan62"
               y="0"
               x="0 10.586975 17.652115 26.607025 31.488907 35.1539 42.483887 46.14888 53.478867 57.55188 64.881866 68.54686 75.876846">GPA: 5.0/5.0 </tspan></text>
<text
             id="text68"
             style="font-variant:normal;font-weight:normal;font-size:14.65999985px;font-family:TimesNewRomanPSMT;-inkscape-font-specification:TimesNewRomanPSMT;writing-mode:lr-tb;fill:#000000;fill-opacity:1;fill-rule:nonzero;stroke:none"
             transform="translate(671.90839,150.61848)"><tspan
               id="tspan66"
               y="0"
               x="0 9.7780914 16.284897 27.687912 35.017899 39.89978 43.972794 51.30278 58.632767 65.139572 68.804565">Cambridge, </tspan></text>
<text
             id="text72"
             style="font-variant:normal;font-weight:normal;font-size:14.65999985px;font-family:TimesNewRomanPSMT;-inkscape-font-specification:TimesNewRomanPSMT;writing-mode:lr-tb;fill:#000000;fill-opacity:1;fill-rule:nonzero;stroke:none"
             transform="translate(744.37793,150.61848)"><tspan
               id="tspan70"
               y="0"
               x="0 13.03508 23.622055">MA </tspan></text>
<text
             id="text76"
             style="font-variant:normal;font-weight:normal;font-size:14.65999985px;font-family:TimesNewRomanPSMT;-inkscape-font-specification:TimesNewRomanPSMT;writing-mode:lr-tb;fill:#000000;fill-opacity:1;fill-rule:nonzero;stroke:none"
             transform="translate(60,167.48372)"><tspan
               id="tspan74"
               y="0"
               x="0 9.7780914 16.284897 22.791702 30.121689 36.628494 40.701508 48.031494 52.913376 56.578369 63.908356 68.790237 72.455231 80.608414 87.115219 91.188232 97.695038 105.02502 111.53183 118.03864 121.70363 125.77664 133.10663 136.77162 146.54971 153.8797 165.28271 172.6127 179.94269 184.0157 190.52251 195.40439 199.06938 207.22256 213.72937 217.80238 224.30919 231.63918 238.14598 244.65279 248.31778 254.82458 262.15457 269.48456 273.14954 282.10443 289.43442 296.7644 300.8374 308.16739 314.67419 321.181 326.06287 330.13586 337.46585 344.79584">Bachelor of Science in Computer Science and Engineering </tspan></text>
<text
             id="text80"
             style="font-variant:normal;font-weight:normal;font-size:14.65999985px;font-family:TimesNewRomanPSMT;-inkscape-font-specification:TimesNewRomanPSMT;writing-mode:lr-tb;fill:#000000;fill-opacity:1;fill-rule:nonzero;stroke:none"
             transform="translate(708.14319,167.48372)"><tspan
               id="tspan78"
               y="0"
               x="0 13.03508 19.541885 26.871872 30.536865 37.866852 45.196838 52.526825 59.856812">May 2024 </tspan></text>
<text
             id="text84"
             style="font-variant:normal;font-weight:normal;font-size:14.65999985px;font-family:TimesNewRomanPSMT;-inkscape-font-specification:TimesNewRomanPSMT;writing-mode:lr-tb;fill:#000000;fill-opacity:1;fill-rule:nonzero;stroke:none"
             transform="translate(60,184.34895)"><tspan
               id="tspan82"
               y="0"
               x="0 13.03508 19.541885 25.246964 29.319977 35.826782 40.708664 44.373657 51.703644 56.585526 60.250519 69.205429 76.535416 83.865402 87.938416 95.268402 101.77521 108.28201 113.16389 117.23691 124.56689 131.89688 135.56187 139.63489 146.96487 150.62987 160.40796 167.73795 179.14096 186.47095 193.80093 197.87395 204.38075 209.26263 212.92763 221.08081 227.58762 231.66063 238.16743 245.49742 252.00423 258.51105 262.17603 268.68283 276.01282 283.3428 287.00781 295.96271 303.29269 310.62268 314.69568 322.02567 328.53247 335.03928 339.92114 343.99414 351.32413 358.65411 362.31909 365.98407 372.49088 379.82086 387.15085 393.65765 400.16446 407.49445 411.56744 416.44934 422.95615 427.02917 431.10217 438.43216 445.76215 449.42712 453.50012 460.83011 464.49512 474.27319 481.60318 493.0062 500.33618 507.66617 511.7392 518.24597 523.12787 526.79285 534.94604 542.276 547.98108 552.05408 558.56091 569.96393 575.66901">Master of Engineering in Computer Science and Engineering, concentrating in Computer Systems </tspan></text>
<text
             id="text88"
             style="font-variant:normal;font-weight:normal;font-size:14.65999985px;font-family:TimesNewRomanPSMT;-inkscape-font-specification:TimesNewRomanPSMT;writing-mode:lr-tb;fill:#000000;fill-opacity:1;fill-rule:nonzero;stroke:none"
             transform="translate(708.14319,184.34895)"><tspan
               id="tspan86"
               y="0"
               x="0 13.03508 19.541885 26.871872 30.536865 37.866852 45.196838 52.526825 59.856812">May 2025 </tspan></text>
<text
             id="text92"
             style="font-variant:normal;font-weight:bold;font-size:14.65999985px;font-family:TimesNewRomanPS;-inkscape-font-specification:TimesNewRomanPS-BoldMT;writing-mode:lr-tb;fill:#000000;fill-opacity:1;fill-rule:nonzero;stroke:none"
             transform="translate(48,207.347)"><tspan
               id="tspan90"
               y="0"
               x="0 9.2412415 17.394424 25.547607 32.877594 36.542587 47.129562 54.459549 66.671432 78.883316 87.036499 95.189682 99.262695 104.14458 111.47456 115.13956 125.72653 133.05652 137.12953 141.20255 147.70935 155.03934 161.54614">Yuba Community College </tspan></text>
<text
             id="text96"
             style="font-style:italic;font-variant:normal;font-size:14.65999985px;font-family:TimesNewRomanPS;-inkscape-font-specification:TimesNewRomanPS-ItalicMT;writing-mode:lr-tb;fill:#000000;fill-opacity:1;fill-rule:nonzero;stroke:none"
             transform="translate(213.21114,207.347)"><tspan
               id="tspan94"
               y="0"
               x="0 10.586975 17.652115 26.607025 31.488907 35.1539 42.483887 46.14888 53.478867 57.55188 64.881866 68.54686 75.876846">GPA: 4.0/4.0 </tspan></text>
<text
             id="text100"
             style="font-variant:normal;font-weight:normal;font-size:14.65999985px;font-family:TimesNewRomanPSMT;-inkscape-font-specification:TimesNewRomanPSMT;writing-mode:lr-tb;fill:#000000;fill-opacity:1;fill-rule:nonzero;stroke:none"
             transform="translate(682.20905,207.347)"><tspan
               id="tspan98"
               y="0"
               x="0 8.9620667 16.292053 23.62204 30.128845 33.793839 43.57193 47.644943 51.717957 58.095901 61.760895 65.425888 75.203979 85.790955">Yuba City, CA </tspan></text>
<text
             id="text104"
             style="font-variant:normal;font-weight:normal;font-size:14.65999985px;font-family:TimesNewRomanPSMT;-inkscape-font-specification:TimesNewRomanPSMT;writing-mode:lr-tb;fill:#000000;fill-opacity:1;fill-rule:nonzero;stroke:none"
             transform="translate(60,224.21223)"><tspan
               id="tspan102"
               y="0"
               x="0 10.586975 16.292053 21.997131 29.327118 35.833923 39.906937 46.413742 50.486755 56.993561 60.658554 67.988541 72.870422 76.535416 84.688599 91.195404 95.268417 101.77522 109.10521 115.61201 122.11882 125.78381 129.85683 137.18681 140.85181 153.88689 160.39369 164.46671 171.79669 178.3035 189.70651 196.21332 200.28633 204.35934 210.86615 216.57123 220.23622 230.8232 238.15318 242.2262 246.29921 252.80602 256.47101 263.80099 268.68286 275.18967 282.51965 289.84964 296.35645 300.42944 304.50244 311.83243 319.16241 322.82739 330.15738 334.23041 341.56039 348.89038 352.55536 358.26044 364.76724 372.09723 379.42722 386.7572 390.8302">Associate of Science in Mathematics while graduating high school </tspan></text>
<text
             id="text108"
             style="font-variant:normal;font-weight:normal;font-size:14.65999985px;font-family:TimesNewRomanPSMT;-inkscape-font-specification:TimesNewRomanPSMT;writing-mode:lr-tb;fill:#000000;fill-opacity:1;fill-rule:nonzero;stroke:none"
             transform="translate(708.14319,224.21223)"><tspan
               id="tspan106"
               y="0"
               x="0 13.03508 19.541885 26.871872 30.536865 37.866852 45.196838 52.526825 59.856812">May 2020 </tspan></text>
<text
             id="text112"
             style="font-variant:normal;font-weight:bold;font-size:14.65999985px;font-family:TimesNewRomanPS;-inkscape-font-specification:TimesNewRomanPS-BoldMT;writing-mode:lr-tb;fill:#000000;fill-opacity:1;fill-rule:nonzero;stroke:none"
             transform="translate(48,247.21028)"><tspan
               id="tspan110"
               y="0"
               x="0 8.4323578 14.939163 21.445969 29.599152 37.752335 41.825348 48.332153 55.66214 59.735153 63.400146 71.553329 79.706512 83.779526 87.852539 91.925552 97.63063 102.51251">Technical Skills: </tspan></text>
<text
             id="text116"
             style="font-variant:normal;font-weight:normal;font-size:14.65999985px;font-family:TimesNewRomanPSMT;-inkscape-font-specification:TimesNewRomanPSMT;writing-mode:lr-tb;fill:#000000;fill-opacity:1;fill-rule:nonzero;stroke:none"
             transform="translate(154.1775,247.21028)"><tspan
               id="tspan114"
               y="0"
               x="0 7.9312897 15.261276 22.591263 29.098068 34.803146 41.309952 46.191833 50.264847 57.594833 61.667847 65.33284 68.997833 79.584808 86.914795 90.987808 95.060822 99.133835 106.46382 110.12881 113.79381 121.94699 129.27698 133.34999 140.67998 148.00996 155.33995 159.00494 162.66994 170.82312 181.4101 187.93837 191.60336">Typescript, Kotlin, Python, PHP, </tspan></text>
<text
             id="text120"
             style="font-variant:normal;font-weight:normal;font-size:14.65999985px;font-family:TimesNewRomanPSMT;-inkscape-font-specification:TimesNewRomanPSMT;writing-mode:lr-tb;fill:#000000;fill-opacity:1;fill-rule:nonzero;stroke:none"
             transform="translate(349.44586,247.21028)"><tspan
               id="tspan118"
               y="0"
               x="0 8.153183 18.740158 27.695068 31.360062 35.025055 45.61203 49.685043 53.758057 57.42305 61.088043 71.675018 80.629929 93.665009 102.61992 106.28491 109.94991 119.728 127.88118 136.03436 139.69936 143.36435 149.06943 155.57623 162.90622 169.41302 177.56621 184.07301 188.9549 193.02791 200.35789 204.43091 208.0959 211.76089 221.53899 228.04579 234.5526 241.0594 245.13242 248.79741 252.4624 262.24048 265.90546 269.57043 279.34851 287.61621 295.88391">SQL, Git, HTML, CSS, JavaScript, React, C, C++ </tspan></text>
<text
             id="text124"
             style="font-variant:normal;font-weight:bold;font-size:14.65999985px;font-family:TimesNewRomanPS;-inkscape-font-specification:TimesNewRomanPS-BoldMT;writing-mode:lr-tb;fill:#000000;fill-opacity:1;fill-rule:nonzero;stroke:none"
             transform="translate(48,270.20834)"><tspan
               id="tspan122"
               y="0"
               x="0 10.586975 17.093781 21.166794 27.673599 35.003586 42.333572 50.486755 55.368637 59.03363 69.620605 76.950592 85.103775 91.61058 97.315659 103.82246 114.40944 121.73943 128.24623 136.39941 141.2813">Relevant Coursework: </tspan></text>
<text
             id="text128"
             style="font-variant:normal;font-weight:normal;font-size:14.65999985px;font-family:TimesNewRomanPSMT;-inkscape-font-specification:TimesNewRomanPSMT;writing-mode:lr-tb;fill:#000000;fill-opacity:1;fill-rule:nonzero;stroke:none"
             transform="translate(192.94629,270.20834)"><tspan
               id="tspan126"
               y="0"
               x="0 8.153183 15.48317 20.365051 24.438065 35.02504 41.531845 46.413727 52.920532 56.585526 64.738708 71.245514 76.127396 81.009277 88.339264 93.221146 104.62416 111.13097 118.46095 124.96776 131.47456 135.13956 144.09447 151.42445 158.75444 162.82745 170.15744 176.66425 183.17105 188.05293 192.12595 199.45593 206.78592 210.45091">Software Performance Engineering, </tspan></text>
<text
             id="text132"
             style="font-variant:normal;font-weight:normal;font-size:14.65999985px;font-family:TimesNewRomanPSMT;-inkscape-font-specification:TimesNewRomanPSMT;writing-mode:lr-tb;fill:#000000;fill-opacity:1;fill-rule:nonzero;stroke:none"
             transform="translate(407.06219,270.20834)"><tspan
               id="tspan130"
               y="0"
               x="0 10.586975 17.093781 22.798859 26.871872 34.201859 41.531845 45.196838 51.703644 59.03363 66.363617 70.02861 80.615585 87.945572 94.452377 98.525391 105.85538 111.56046 115.63347 121.33855 125.00354 132.33353 137.21541 140.8804 151.46738 155.54039 162.87038 170.20036 175.08224 179.15526 183.22827 190.55826 201.96127 207.66635 211.33134 214.99634 225.58331 232.9133 239.4201 244.30199 250.80879 254.88181 258.95483 266.28482 273.61481 277.27979 285.43298 292.76297 298.46805 302.54108 309.04788 320.4509 326.15598">Design and Analysis of Algorithms, Operating Systems </tspan></text>
<text
             id="text136"
             style="font-variant:normal;font-weight:normal;font-size:14.65999985px;font-family:TimesNewRomanPSMT;-inkscape-font-specification:TimesNewRomanPSMT;writing-mode:lr-tb;fill:#000000;fill-opacity:1;fill-rule:nonzero;stroke:none"
             transform="translate(48,287.07358)"><tspan
               id="tspan134"
               y="0"
               x="0 8.9549103 16.284897 23.614883 27.687897 35.017883 41.524689 48.031494 52.913376 56.986389 64.316376 71.646362 75.311356 78.976349 88.75444 96.084427 107.48744 114.81743 122.14742 126.22043 132.72723 137.60912 141.27411 149.42729 156.75728 162.46236 166.53537 173.04218 184.44519 190.15027 193.81526 202.77017 210.10016 217.43015 221.50316 228.83315 235.33995 241.84676 246.72864 250.80165 258.13165 265.46164 269.12665 272.79163 281.74652 285.81952 292.32632 303.72934 310.23615 317.56613 321.63916 327.34424 331.00922 338.3392 343.22107 346.88605 355.03925 362.36923 367.2511 371.3241 381.91107 388.41788 393.29974 399.80655 403.47156 413.24963 420.57962 427.90961 433.61469 437.68768 442.56958 449.89957 456.40637 460.47937 464.55237 471.88235 479.21234 482.87732 486.5423 494.6955 502.02548 509.35547 516.68542 523.19226 534.59528 541.10205 548.43201 552.505 559.01184 563.08484 568.78992 572.4549 579.78491 584.66681 588.33179 596.48499 601.36688 608.6969 616.02686 620.90875 627.41553 638.81854 650.22156 654.29456 661.62451 668.95447 672.61945">Engineering, Computer Systems Engineering, Elements of Software Construction, Fundamentals of Programming, </tspan></text>
<text
             id="text140"
             style="font-variant:normal;font-weight:normal;font-size:14.65999985px;font-family:TimesNewRomanPSMT;-inkscape-font-specification:TimesNewRomanPSMT;writing-mode:lr-tb;fill:#000000;fill-opacity:1;fill-rule:nonzero;stroke:none"
             transform="translate(48,303.93881)"><tspan
               id="tspan138"
               y="0"
               x="0 9.7780914 14.659973 21.98996 29.319946 33.39296 40.722946 48.052933 52.934814 59.44162 66.771606 74.101593 81.43158 85.096573 91.603378 98.933365 106.26335 109.92834 119.70644 124.58832 131.9183 139.24829 143.3213 149.82811 157.1581 163.6649 167.73792 175.0679 180.77298 184.84599 190.55107 194.21606 197.88106 202.76294 210.09293 214.16594 219.04782 226.37781 233.70779 241.03778 247.54459 251.6176 255.69061 263.0206 270.35059 274.01556 278.08856 285.41855 289.08356 293.96545 301.29544 306.17731 312.68411 317.56598 324.07278 331.40277 337.90958 344.41638 348.08136 351.74634 359.89954 364.78143 372.11142 379.44141 385.94821 393.2782 397.3512 401.42419 405.49719 409.57019 416.90018 420.56519 427.07199 434.40198 441.73196 445.39697 455.17505 461.68185 469.01184 476.34183 483.67181 495.07483 498.73981 507.7019 514.20868 519.09058 523.16357 529.67041 537.00037 541.07336 547.5802 553.28528">Cryptography and Cryptanalysis, Introduction to Inference, Probability and Random Variables </tspan></text>
<text
             id="text144"
             style="font-variant:normal;font-weight:bold;font-size:16px;font-family:TimesNewRomanPS;-inkscape-font-specification:TimesNewRomanPS-BoldMT;writing-mode:lr-tb;fill:#000000;fill-opacity:1;fill-rule:nonzero;stroke:none"
             transform="translate(48,335.84766)"><tspan
               id="tspan142"
               y="0"
               x="0 11.554688 22.226562 32.898438 43.265625 53.9375 64.609375 76.164062 80.164062 90.835938 102.39062 112.16406 122.83594 134.39062 140.61719 151.28906 162.84375 174.39844 185.07031">RELATED EXPERIENCE </tspan></text>
<path
             id="path146"
             style="fill:none;stroke:#888888;stroke-width:1;stroke-linecap:butt;stroke-linejoin:miter;stroke-miterlimit:10;stroke-dasharray:none;stroke-opacity:1"
             d="M 46,344.5 H 764" /><text
             id="text150"
             style="font-variant:normal;font-weight:bold;font-size:14.65999985px;font-family:TimesNewRomanPS;-inkscape-font-specification:TimesNewRomanPS-BoldMT;writing-mode:lr-tb;fill:#000000;fill-opacity:1;fill-rule:nonzero;stroke:none"
             transform="translate(48,365.26694)"><tspan
               id="tspan148"
               y="0"
               x="0 8.4323578 15.762344 23.092331 28.797409 33.679291 38.561172">Toast: </tspan></text>
<text
             id="text154"
             style="font-style:italic;font-variant:normal;font-size:14.65999985px;font-family:TimesNewRomanPS;-inkscape-font-specification:TimesNewRomanPS-ItalicMT;writing-mode:lr-tb;fill:#000000;fill-opacity:1;fill-rule:nonzero;stroke:none"
             transform="translate(90.226166,365.26694)"><tspan
               id="tspan152"
               y="0"
               x="0 7.3299866 14.659973 18.732986 22.806 32.584091 39.914078 45.075134 51.58194 55.246933 64.201843 71.53183 78.861816 82.93483 90.264816 96.771622 103.27843 108.98351 112.6485 117.53038 124.86037 128.93338 135.44019 141.14526 148.47525">Software Engineer Intern </tspan></text>
<text
             id="text158"
             style="font-variant:normal;font-weight:normal;font-size:14.65999985px;font-family:TimesNewRomanPSMT;-inkscape-font-specification:TimesNewRomanPSMT;writing-mode:lr-tb;fill:#000000;fill-opacity:1;fill-rule:nonzero;stroke:none"
             transform="translate(653.57629,365.26694)"><tspan
               id="tspan156"
               y="0"
               x="0 5.7050781 13.035065 20.365051 26.871857 30.53685 35.418732 39.083725 49.6707 57.000687 64.330673 71.66066 77.365738 81.438751 85.103745 92.433731 99.763718 107.0937 114.42369">June - August 2023 </tspan></text>
<text
             id="text162"
             style="font-variant:normal;font-weight:normal;font-size:14.65999985px;font-family:ArialMT;-inkscape-font-specification:ArialMT;writing-mode:lr-tb;fill:#000000;fill-opacity:1;fill-rule:nonzero;stroke:none"
             transform="translate(60,388.32944)"><tspan
               id="tspan160"
               y="0"
               x="0 8.8546906">● </tspan></text>
<text
             id="text166"
             style="font-variant:normal;font-weight:normal;font-size:14.65999985px;font-family:TimesNewRomanPSMT;-inkscape-font-specification:TimesNewRomanPSMT;writing-mode:lr-tb;fill:#000000;fill-opacity:1;fill-rule:nonzero;stroke:none"
             transform="translate(78,388.32944)"><tspan
               id="tspan164"
               y="0"
               x="0 9.7780914 14.659973 21.166779 27.673584 31.746597 38.253403 45.583389 49.248383 57.401566 64.731552 68.804565 74.509644 81.016449 85.898331 89.563324 96.070129 103.40012 110.7301 117.23691 120.9019 124.97491 132.3049 135.96989 142.4767 149.80669 157.13667 162.84175 170.17174 181.57475 188.08156 191.74655 196.62843 201.51031 208.8403 220.24332 223.90831 230.41512 234.08011 241.4101 247.9169 258.50388 262.16888 266.24188 273.57187 280.90186 284.97485 291.48166 295.14667 301.65347 308.98346 316.31345 319.97845 327.30844 334.63843 341.96841 348.47522 352.54822 359.05502 362.72003 369.22684 376.55682 382.2619 386.3349 393.66489 405.0679 411.57471 416.4566 422.16168 427.04358 430.70856 436.41364 442.92044 446.99347 451.06647 455.13947 462.46945 469.79944 475.50452 479.16949 483.24249 490.57248 494.23749 503.65051 517.4873 525.6405 529.30548 539.89246 547.22241 554.55237 561.0592 572.46222 579.79224 590.37921 600.15729">Created Pulsar code to consume from a new topic and update customers’ settings in AWS DynamoDB </tspan></text>
<text
             id="text170"
             style="font-variant:normal;font-weight:normal;font-size:14.65999985px;font-family:ArialMT;-inkscape-font-specification:ArialMT;writing-mode:lr-tb;fill:#000000;fill-opacity:1;fill-rule:nonzero;stroke:none"
             transform="translate(60,405.25912)"><tspan
               id="tspan168"
               y="0"
               x="0 8.8546906">● </tspan></text>
<text
             id="text174"
             style="font-variant:normal;font-weight:normal;font-size:14.65999985px;font-family:TimesNewRomanPSMT;-inkscape-font-specification:TimesNewRomanPSMT;writing-mode:lr-tb;fill:#000000;fill-opacity:1;fill-rule:nonzero;stroke:none"
             transform="translate(78,405.25912)"><tspan
               id="tspan172"
               y="0"
               x="0 13.03508 17.108093 24.43808 29.319962 35.826767 39.89978 46.406586 53.736572 57.401566 61.474579 68.804565 72.877579 79.384384 84.266266 91.596252 98.103058 102.17607 105.84106 116.42804 124.58122 129.4631 133.1281 139.6349 146.14171 150.21472 154.28773 159.99281 163.65781 168.53969 173.42157 180.75156 192.15457 195.81956 203.14955 209.65636 216.98634 221.86823 228.37503 234.88184 241.38864 245.46165 251.96846 259.29846 262.96344 267.03644 274.36642 278.03143 285.36142 291.86823 302.4552 306.12018 311.82526 318.33206 323.21393 330.54391 334.61694 341.12375 347.63055 353.33563 357.00061 360.66559 364.73859 376.1416 383.47159 388.35345 395.68344 403.01343 407.08643 414.41641 421.7464 425.41138 431.11646 437.62326 442.50513 449.83511 453.90814 460.41495 466.92175 470.58673 476.29181 480.36481 486.87161 494.2016 498.2746 502.3476 506.42059 510.49359 517.82361">Migrated internal API calls from deprecated to new services, improving service stability </tspan></text>
<text
             id="text178"
             style="font-variant:normal;font-weight:normal;font-size:14.65999985px;font-family:ArialMT;-inkscape-font-specification:ArialMT;writing-mode:lr-tb;fill:#000000;fill-opacity:1;fill-rule:nonzero;stroke:none"
             transform="translate(60,422.18881)"><tspan
               id="tspan176"
               y="0"
               x="0 8.8546906">● </tspan></text>
<text
             id="text182"
             style="font-variant:normal;font-weight:normal;font-size:14.65999985px;font-family:TimesNewRomanPSMT;-inkscape-font-specification:TimesNewRomanPSMT;writing-mode:lr-tb;fill:#000000;fill-opacity:1;fill-rule:nonzero;stroke:none"
             transform="translate(78,422.18881)"><tspan
               id="tspan180"
               y="0"
               x="0 10.586975 17.916962 25.246948 30.12883 36.635635 43.965622 50.472427 57.802414 61.467407 67.974213 75.304199 78.969193 85.475998 92.805984 98.511063 102.58408 109.91406 121.31708 127.82388 132.41228 137.29416 142.17604 148.68285 155.18965 159.26266 166.59265 173.92264 177.58763 185.74081 192.54826 203.13524 206.80023 210.87325 218.20323 221.86823 226.75011 233.25691 239.76372 246.27052 250.34354 254.00853 261.3385 268.66849 272.3335 275.99847 282.50528 288.21036 291.87537 302.46234 308.96915 313.04218 317.11517 320.78015 327.28696 332.99203 336.65704 341.53894 345.61194 352.94193 359.44873 366.77872 370.44373 376.95053 380.61554 385.49744 392.00424 399.33423 406.66422 413.17102 418.05292 422.12592 429.4559 436.78589 440.45087 447.78085 455.11084 462.44083 466.10583 472.61264 479.94263 487.27261 490.93762 498.26761 504.77441 508.84741 516.17737 519.84235 523.91534 528.79724 535.30408 542.63403 549.14087 554.02277 559.72784 566.23462 570.30762 573.9726 579.67767 586.18445 592.69128 600.02124 604.90314 608.97614 613.04913 620.37915 624.04413 628.11713 633.8222 639.52728 646.8573 653.36414">Upgraded an customer-facing SPA to react 18, as well as fixed a rendering bug and path traversal security issue </tspan></text>
<text
             id="text186"
             style="font-variant:normal;font-weight:normal;font-size:14.65999985px;font-family:ArialMT;-inkscape-font-specification:ArialMT;writing-mode:lr-tb;fill:#000000;fill-opacity:1;fill-rule:nonzero;stroke:none"
             transform="translate(60,439.1185)"><tspan
               id="tspan184"
               y="0"
               x="0 8.8546906">● </tspan></text>
<text
             id="text190"
             style="font-variant:normal;font-weight:normal;font-size:14.65999985px;font-family:TimesNewRomanPSMT;-inkscape-font-specification:TimesNewRomanPSMT;writing-mode:lr-tb;fill:#000000;fill-opacity:1;fill-rule:nonzero;stroke:none"
             transform="translate(78,439.1185)"><tspan
               id="tspan188"
               y="0"
               x="0 9.7780914 16.284897 21.166779 27.673584 34.180389 38.253403 45.583389 50.465271 56.972076 64.302063 67.967056 76.120239 83.450226 87.523239 93.228317 99.735123 104.617 108.282 114.7888 122.11879 129.44878 135.15385 142.48384 153.88686 160.39366 165.27554 168.94054 175.44734 182.77733 190.10732 196.61412 200.27911 210.86609 214.9391 219.01212 226.3421 230.0071 234.08011 241.4101 247.9169 251.58189 258.08868 265.41867 271.92548 275.99847 283.32846 286.99347 294.32346 299.20532 302.8703 307.7522 314.259 319.96408 327.29407 334.62405 341.95404 347.65912 351.73212 359.0621 363.13513 367.20813 371.28113 375.35413 382.68411 386.34912 393.67911 400.18591 404.25891 408.33191 414.83871 419.72058 427.05057 430.71558 434.38055 438.45355 445.78354 452.29034 457.17224 463.67905 470.18585 475.89093 479.96393 487.29391 494.6239 498.28888 503.17078 509.67758 516.18439 523.5144 527.5874 534.91736 541.42419 547.12927 552.83435 556.49933 561.38123 568.71118 573.59308 577.25806 583.76489 591.09485 597.60168 604.93164 612.2616 618.76843">Refactored Pulsar consumer code with the chain of responsibility pattern, increasing readiness for change </tspan></text>
<text
             id="text194"
             style="font-variant:normal;font-weight:normal;font-size:14.65999985px;font-family:ArialMT;-inkscape-font-specification:ArialMT;writing-mode:lr-tb;fill:#000000;fill-opacity:1;fill-rule:nonzero;stroke:none"
             transform="translate(60,456.04819)"><tspan
               id="tspan192"
               y="0"
               x="0 8.8546906">● </tspan></text>
<text
             id="text198"
             style="font-variant:normal;font-weight:normal;font-size:14.65999985px;font-family:TimesNewRomanPSMT;-inkscape-font-specification:TimesNewRomanPSMT;writing-mode:lr-tb;fill:#000000;fill-opacity:1;fill-rule:nonzero;stroke:none"
             transform="translate(78,456.04819)"><tspan
               id="tspan196"
               y="0"
               x="0 10.586975 14.659988 18.733002 22.806015 26.879028 33.385834 39.892639 47.222626 50.887619 61.474594 68.804581 72.877594 76.950607 81.023621 88.353607 92.0186 95.683594 103.01358 109.52039 116.85037 123.35718 130.68716 138.01715 144.52396 151.85394 158.36075 165.69073 169.35573 173.42874 180.75873 184.83174 191.33855 197.84535 201.91837 205.99138 213.32137 220.65135 224.31635 229.19823 239.7852 247.11519 254.44518 261.77515 265.84814 272.35495 276.01996 286.60693 293.93692 298.00995 304.51675 311.02356 315.90546 319.57043 323.23541 333.82239 338.70428 345.21109 352.54108 356.61407 363.12088 366.78589 370.45087 380.22894 386.73575 392.44083 399.77081 403.84381 407.91681 411.58179 424.61688 431.94687 439.27686 445.78366 453.11365 456.77863 460.4436 468.5968 475.92679 479.99982 487.3298 494.65979 501.98978 505.65479 509.72778 517.05774 524.3877 531.71765 535.79065 543.12061 550.45056 554.11554 557.78052 565.93372 573.26367 578.96875 583.04175 594.44476 600.95154 608.28149 611.94647 615.61145 626.19843 631.08032 637.58716 644.91711 652.24707 662.83405 671.78894 675.45392">Utilized Kotlin, dependency injection (Google Guice), Gradle, Result Monad, Splunk logging, Postman, GraphQL, </tspan></text>
<text
             id="text202"
             style="font-variant:normal;font-weight:normal;font-size:14.65999985px;font-family:TimesNewRomanPSMT;-inkscape-font-specification:TimesNewRomanPSMT;writing-mode:lr-tb;fill:#000000;fill-opacity:1;fill-rule:nonzero;stroke:none"
             transform="translate(78,472.91342)"><tspan
               id="tspan200"
               y="0"
               x="0 6.5068054 13.836792 21.166779 24.831772 29.713654 36.220459 42.727264 46.800278 54.130264 59.012146 65.518951 69.183945 74.065826 78.13884 84.645645 91.975632 97.68071 101.3457 106.22758 113.55757 118.43945 122.10445 127.80952 134.31633 139.19821 145.70502 149.37001 156.7 161.58188 168.91187 176.24185 183.57184 190.07864 194.15166 198.22467 205.55466 212.88464 216.54964 223.87962 230.38643 237.71642 241.78943 249.11942 256.4494 267.85242 274.35922 281.68921 285.76221">and feature flags for safe production deployment </tspan></text>
<text
             id="text206"
             style="font-variant:normal;font-weight:bold;font-size:14.65999985px;font-family:TimesNewRomanPS;-inkscape-font-specification:TimesNewRomanPS-BoldMT;writing-mode:lr-tb;fill:#000000;fill-opacity:1;fill-rule:nonzero;stroke:none"
             transform="translate(48,495.91147)"><tspan
               id="tspan204"
               y="0"
               x="0 10.586975 17.916962 30.128845 36.635651 43.965637 49.670715 54.552597 58.21759 63.099472 72.054382 78.296341 84.803146 91.309952 105.96994 114.12312 120.62993 127.13673 131.20975 136.09163 140.97351">Comcast (FreeWheel): </tspan></text>
<text
             id="text210"
             style="font-style:italic;font-variant:normal;font-size:14.65999985px;font-family:TimesNewRomanPS;-inkscape-font-specification:TimesNewRomanPS-ItalicMT;writing-mode:lr-tb;fill:#000000;fill-opacity:1;fill-rule:nonzero;stroke:none"
             transform="translate(192.6385,495.91147)"><tspan
               id="tspan208"
               y="0"
               x="0 7.3299866 14.659973 18.732986 22.806 32.584091 39.914078 45.075134 51.58194 55.246933 64.201843 71.53183 78.861816 82.93483 90.264816 96.771622 103.27843 108.98351 112.6485 117.53038 124.86037 128.93338 135.44019 141.14526 148.47525">Software Engineer Intern </tspan></text>
<text
             id="text214"
             style="font-variant:normal;font-weight:normal;font-size:14.65999985px;font-family:TimesNewRomanPSMT;-inkscape-font-specification:TimesNewRomanPSMT;writing-mode:lr-tb;fill:#000000;fill-opacity:1;fill-rule:nonzero;stroke:none"
             transform="translate(653.57629,495.91147)"><tspan
               id="tspan212"
               y="0"
               x="0 5.7050781 13.035065 20.365051 26.871857">June </tspan></text>
<text
             id="text218"
             style="font-variant:normal;font-weight:normal;font-size:14.65999985px;font-family:TimesNewRomanPSMT;-inkscape-font-specification:TimesNewRomanPSMT;writing-mode:lr-tb;fill:#000000;fill-opacity:1;fill-rule:nonzero;stroke:none"
             transform="translate(684.11316,495.91147)"><tspan
               id="tspan216"
               y="0"
               x="0 4.8818817 8.546875 19.13385 26.463837 33.793823 41.12381 46.828888 50.901901 54.566895 61.896881 69.226868 76.556854 83.886841">- August 2022 </tspan></text>
<text
             id="text222"
             style="font-variant:normal;font-weight:normal;font-size:14.65999985px;font-family:ArialMT;-inkscape-font-specification:ArialMT;writing-mode:lr-tb;fill:#000000;fill-opacity:1;fill-rule:nonzero;stroke:none"
             transform="translate(60,518.97394)"><tspan
               id="tspan220"
               y="0"
               x="0 8.8546906">● </tspan></text>
<text
             id="text226"
             style="font-variant:normal;font-weight:normal;font-size:14.65999985px;font-family:TimesNewRomanPSMT;-inkscape-font-specification:TimesNewRomanPSMT;writing-mode:lr-tb;fill:#000000;fill-opacity:1;fill-rule:nonzero;stroke:none"
             transform="translate(78,518.97394)"><tspan
               id="tspan224"
               y="0"
               x="0 9.7780914 17.108078 21.181091 25.254105 29.327118 32.992111 39.498917 43.16391 50.493896 57.823883 65.15387 71.660675 75.733688 79.398682 85.10376 91.610565 96.492447 103.82243 107.89545 114.40225 120.90906 124.57405 128.64706 135.97705 139.64204 146.14885 152.65565 159.98564 164.05865 171.38864 176.27052 182.77733 186.44232 192.94913 200.27911 205.98419 210.05721 213.7222 225.12521 231.63202 235.70503 240.58691 244.65993 251.16673 254.83173 265.4187 273.5719 278.4538 284.15887 287.82385 292.70575 300.03574 304.9176 308.58258 312.65558 319.98557 326.49237 330.15735 340.74432 346.4494 352.95621 357.83807 368.42505 374.93185 379.00488 385.51169 389.1767 393.24969 399.7565 406.26331 417.66632 421.3313 424.99628 431.50308 438.83307 445.33987 449.4129 456.74289 463.24969 467.32269 474.65268 481.98267 485.64764 492.97763 500.30762 513.34271 517.00769 521.08069 528.41064 532.07562 538.5824 545.91235 553.24231 560.57227 567.0791 571.1521 574.81708 580.52216 587.85217 594.35901 601.68896 609.01892">Built a novel service to capture cost metric KPIs for the UserData team, analyzing $3M in annual spend </tspan></text>
<text
             id="text230"
             style="font-variant:normal;font-weight:normal;font-size:14.65999985px;font-family:ArialMT;-inkscape-font-specification:ArialMT;writing-mode:lr-tb;fill:#000000;fill-opacity:1;fill-rule:nonzero;stroke:none"
             transform="translate(60,535.90363)"><tspan
               id="tspan228"
               y="0"
               x="0 8.8546906">● </tspan></text>
<text
             id="text234"
             style="font-variant:normal;font-weight:normal;font-size:14.65999985px;font-family:TimesNewRomanPSMT;-inkscape-font-specification:TimesNewRomanPSMT;writing-mode:lr-tb;fill:#000000;fill-opacity:1;fill-rule:nonzero;stroke:none"
             transform="translate(78,535.90363)"><tspan
               id="tspan232"
               y="0"
               x="0 8.9549103 15.461716 22.791702 29.298508 34.180389 40.687195 48.017181 54.523987 61.853973 65.518967 69.59198 76.098785 82.605591 89.935577 97.265564 104.59555 108.66856 115.99855 123.32854 127.40155 133.90836 139.61343 143.27843 147.35144 154.68143 161.18823 165.26125 172.59123 179.92122 183.99423 191.32422 198.65421 202.3192 210.47238 217.80237 225.13235 235.71933 240.60121 244.67422 251.18103 258.51102 265.01782 268.6828 272.34778 281.7608 295.5976 303.75079 307.41577 315.56897 322.07578 326.95764 334.28763 338.36066 344.86746 351.37427 357.07935 360.74432 365.62622 375.4043 379.47729 386.80728 394.13727 401.46725 414.1301 420.6369 424.7099 431.21671 438.54669 442.21167 445.87665 454.02985 461.35983 465.02484 468.68982 477.64471 487.42279 497.20087 500.86584 504.53082 513.48572 524.07269 532.22589 537.10779 540.77277 544.43774 555.02472 559.64172 566.97174 574.30176 584.07983 594.66681 598.33179 601.99677 612.58374 619.9137 627.24365 633.75049 638.63239 645.9624 652.46924 656.54224 663.04907 668.75415 672.41913">Leveraged technologies including Snowflake, AWS Services (CloudWatch, S3, ECR, EKS), ArgoCD, Kubernetes, </tspan></text>
<text
             id="text238"
             style="font-variant:normal;font-weight:normal;font-size:14.65999985px;font-family:TimesNewRomanPSMT;-inkscape-font-specification:TimesNewRomanPSMT;writing-mode:lr-tb;fill:#000000;fill-opacity:1;fill-rule:nonzero;stroke:none"
             transform="translate(78,552.76886)"><tspan
               id="tspan236"
               y="0"
               x="0 6.5068054 13.836792 21.166779 24.831772 35.418747 42.748734 49.255539 56.585526 63.092331 67.974213">and Docker </tspan></text>
<text
             id="text242"
             style="font-variant:normal;font-weight:normal;font-size:14.65999985px;font-family:ArialMT;-inkscape-font-specification:ArialMT;writing-mode:lr-tb;fill:#000000;fill-opacity:1;fill-rule:nonzero;stroke:none"
             transform="translate(60,569.69855)"><tspan
               id="tspan240"
               y="0"
               x="0 8.8546906">● </tspan></text>
<text
             id="text246"
             style="font-variant:normal;font-weight:normal;font-size:14.65999985px;font-family:TimesNewRomanPSMT;-inkscape-font-specification:TimesNewRomanPSMT;writing-mode:lr-tb;fill:#000000;fill-opacity:1;fill-rule:nonzero;stroke:none"
             transform="translate(78,569.69855)"><tspan
               id="tspan244"
               y="0"
               x="0 9.7780914 17.108078 21.181091 25.254105 31.76091 39.090897 46.420883 51.302765 57.80957 61.882584 68.389389 75.719376 79.384369 89.971344 94.044357 98.117371 105.44736 109.11235 113.18536 120.51535 127.02216 130.68715 138.84033 148.61842 157.57333 161.23833 165.31134 171.81815 178.32495 189.72797 193.39296 200.72295 208.05293 211.71793 218.22473 223.10661 229.61342 236.12022 240.19324 244.26625 251.59624 258.92621 262.59119 269.09799 276.42798 280.09296 287.42294 294.75293 300.45801 306.96481 311.84668 319.17667 325.68347 333.01346 337.08649 341.15948 345.23248 349.30548 356.63547 360.30048 367.63046 374.13727 379.84235 387.17233 394.50232 401.83231 408.33911 413.22101 420.55099 424.216 431.54599 438.87598 442.54095 453.12793 458.00983 464.51663 469.3985 475.9053 483.23529 489.7421 493.4071 499.91391 503.98694 511.31693 518.64691 525.97693 529.64191 533.30688 540.63684 544.70984 548.78284 552.85583 556.92883 563.43567 567.50867 574.83862 582.16858 585.83356 592.34033 596.00531 604.15851 609.04041 616.37036 627.77338 634.28015 638.35315 645.68311 652.18994 659.5199 665.22498">Collaborated with the SRE team by creating an observability dashboard on Grafana cloud, utilizing a Prometheus </tspan></text>
<text
             id="text250"
             style="font-variant:normal;font-weight:normal;font-size:14.65999985px;font-family:TimesNewRomanPSMT;-inkscape-font-specification:TimesNewRomanPSMT;writing-mode:lr-tb;fill:#000000;fill-opacity:1;fill-rule:nonzero;stroke:none"
             transform="translate(78,586.56378)"><tspan
               id="tspan248"
               y="0"
               x="0 7.3299866 14.659973 20.365051 27.695038 31.360031 38.690018 45.196823 49.269836 55.776642 66.363617 72.870422 80.200409">push gateway </tspan></text>
<text
             id="text254"
             style="font-variant:normal;font-weight:normal;font-size:14.65999985px;font-family:ArialMT;-inkscape-font-specification:ArialMT;writing-mode:lr-tb;fill:#000000;fill-opacity:1;fill-rule:nonzero;stroke:none"
             transform="translate(60,603.49347)"><tspan
               id="tspan252"
               y="0"
               x="0 8.8546906">● </tspan></text>
<text
             id="text258"
             style="font-variant:normal;font-weight:normal;font-size:14.65999985px;font-family:TimesNewRomanPSMT;-inkscape-font-specification:TimesNewRomanPSMT;writing-mode:lr-tb;fill:#000000;fill-opacity:1;fill-rule:nonzero;stroke:none"
             transform="translate(78,603.49347)"><tspan
               id="tspan256"
               y="0"
               x="0 9.7780914 16.284897 21.166779 27.673584 34.180389 38.253403 45.583389 50.465271 56.972076 64.302063 67.967056 77.380081 91.216873 99.370056 103.03505 111.98996 118.49677 129.89978 137.22977 144.55975 151.06656 154.73155 161.23836 168.56834 175.89833 182.40514 186.07013 196.6571 200.73012 204.80313 212.13312 215.79811 219.87112 227.20111 233.70792 237.37291 242.25479 248.7616 255.2684 259.34143 266.67142 271.55328 278.88327 282.54828 289.87827 296.38507 302.09015 306.16315 313.49313 320.82312 324.4881 331.81808 338.32489 342.39789 346.47089 352.97769 357.85956 365.18954 368.85455 375.36136 382.69135 390.02133 393.68634 400.19315 407.52313 414.85312 418.92615 423.80804 427.88104 435.21103 442.54102 446.61401 453.12082 460.45081 464.11578 468.18878 475.51877 479.18378 485.69058 493.02057 496.68555 500.75854 508.08853 512.16156 518.66833 523.55023 530.88025 537.38708 541.46008 545.12506 556.52808 563.03491 567.10791 571.98981 576.06281 582.56958 586.23456 590.30756 594.38055 601.71057 606.59247 613.09924 617.98114 625.31116">Refactored AWS Lambda code with the factory design pattern and contributed to an internal metric library </tspan></text>
<text
             id="text262"
             style="font-variant:normal;font-weight:bold;font-size:14.65999985px;font-family:TimesNewRomanPS;-inkscape-font-specification:TimesNewRomanPS-BoldMT;writing-mode:lr-tb;fill:#000000;fill-opacity:1;fill-rule:nonzero;stroke:none"
             transform="translate(48,626.49152)"><tspan
               id="tspan260"
               y="0"
               x="0 10.586975 17.916962 22.798843 26.871857 34.201843 42.355026 49.685013 53.758026 57.423019 65.576202 72.083008 78.589813 86.742996 93.249802 97.322815 102.2047 109.53468 113.19968 118.90475 127.05794 135.21112 142.54111 149.87109 157.20108 162.08296 166.15598 173.48596 181.63914 185.30414 195.89111 202.39792 207.2798 217.86678 225.19676 231.70357 239.85675 244.73863">National Security Innovation Network: </tspan></text>
<text
             id="text266"
             style="font-style:italic;font-variant:normal;font-size:14.65999985px;font-family:TimesNewRomanPS;-inkscape-font-specification:TimesNewRomanPS-ItalicMT;writing-mode:lr-tb;fill:#000000;fill-opacity:1;fill-rule:nonzero;stroke:none"
             transform="translate(296.40363,626.49152)"><tspan
               id="tspan264"
               y="0"
               x="0 10.586975 17.916962 21.989975 29.319962 36.649948 43.979935 49.685013 56.191818 59.856812 68.811722 76.141708 83.471695 87.544708 94.051514 99.756592 103.82961">Database Analyst </tspan></text>
<text
             id="text270"
             style="font-style:italic;font-variant:normal;font-size:14.65999985px;font-family:TimesNewRomanPS;-inkscape-font-specification:TimesNewRomanPS-ItalicMT;writing-mode:lr-tb;fill:#000000;fill-opacity:1;fill-rule:nonzero;stroke:none"
             transform="translate(403.89822,626.49152)"><tspan
               id="tspan268"
               y="0"
               x="0 4.8818817 12.211868 16.284882 22.791687 28.496765 35.826752">Intern </tspan></text>
<text
             id="text274"
             style="font-variant:normal;font-weight:normal;font-size:14.65999985px;font-family:TimesNewRomanPSMT;-inkscape-font-specification:TimesNewRomanPSMT;writing-mode:lr-tb;fill:#000000;fill-opacity:1;fill-rule:nonzero;stroke:none"
             transform="translate(653.57629,626.49152)"><tspan
               id="tspan272"
               y="0"
               x="0 5.7050781 13.035065 20.365051 26.871857 30.53685 35.418732 39.083725 49.6707 57.000687 64.330673 71.66066 77.365738 81.438751 85.103745 92.433731 99.763718 107.0937 114.42369">June - August 2021 </tspan></text>
<text
             id="text278"
             style="font-variant:normal;font-weight:normal;font-size:14.65999985px;font-family:ArialMT;-inkscape-font-specification:ArialMT;writing-mode:lr-tb;fill:#000000;fill-opacity:1;fill-rule:nonzero;stroke:none"
             transform="translate(60,649.55402)"><tspan
               id="tspan276"
               y="0"
               x="0 8.8546906">● </tspan></text>
<text
             id="text282"
             style="font-variant:normal;font-weight:normal;font-size:14.65999985px;font-family:TimesNewRomanPSMT;-inkscape-font-specification:TimesNewRomanPSMT;writing-mode:lr-tb;fill:#000000;fill-opacity:1;fill-rule:nonzero;stroke:none"
             transform="translate(78,649.55402)"><tspan
               id="tspan280"
               y="0"
               x="0 13.249817 18.131699 25.461685 29.534698 36.041504 39.706497 47.036484 53.543289 57.616302 64.123108 71.453094 77.9599 83.664978 90.171783 93.836777 98.718658 105.22546 112.55545 119.88544 123.95845 128.84033 135.34714 146.75015 153.25696 160.58694 164.65996 170.36504 174.03003 178.91191 186.2419 191.12378 194.78877 198.86179 206.19177 212.69858 216.36357 221.24545 227.75226 235.08224 241.58905 247.29413 251.36714 258.69714 266.02713 269.69214 277.02213 281.90399 285.56897 289.64197 296.97195 303.47876 307.14374 317.73071 321.39569 329.54889 333.21387 336.87885 347.46582 352.34772 363.75073 371.08072 375.15375 380.85883 384.5238 394.30188 400.80869 404.88171 408.95471 416.2847 423.61469 427.27966 437.86664 445.19662 451.70343 455.77643 463.10641 468.81149 472.88452 478.5896 482.25458 490.40778 497.73776 503.44284 507.51587 514.02271 525.42572">Wrote database requirements for the redesign of the U.S. Army’s Ration Analysis System </tspan></text>
<text
             id="text286"
             style="font-variant:normal;font-weight:normal;font-size:14.65999985px;font-family:ArialMT;-inkscape-font-specification:ArialMT;writing-mode:lr-tb;fill:#000000;fill-opacity:1;fill-rule:nonzero;stroke:none"
             transform="translate(60,666.4837)"><tspan
               id="tspan284"
               y="0"
               x="0 8.8546906">● </tspan></text>
<text
             id="text290"
             style="font-variant:normal;font-weight:normal;font-size:14.65999985px;font-family:TimesNewRomanPSMT;-inkscape-font-specification:TimesNewRomanPSMT;writing-mode:lr-tb;fill:#000000;fill-opacity:1;fill-rule:nonzero;stroke:none"
             transform="translate(78,666.4837)"><tspan
               id="tspan288"
               y="0"
               x="0 9.7780914 16.284897 21.989975 28.49678 35.003586 39.885468 46.392273 53.72226 60.229065 67.559052 71.224045 77.73085 85.060837 92.390823 96.055817 103.3858 108.26768 115.59767 122.92766 127.00067 134.33066 140.83746 148.16745 151.83244 159.16243 165.66924 169.74225 176.24905 180.32207 184.39508 190.90189 198.23187 201.89687 209.22685 216.55684 220.62985 227.95984 234.46664 241.79663 248.30344 254.81024 258.47522 265.80521 273.13519 276.80017 280.87317 288.20316 294.70996 298.37494 305.70493 312.21173 317.91681 321.98981 325.65479 332.16159 336.23462 343.56461 350.89459 358.22458 361.88959 367.59467 374.92465 378.99768 386.32767 390.4007 394.47369 401.80368 409.13367 414.83875 418.50372 423.38562 430.71561 435.59747 439.26245 443.33545 450.66544 457.17224 461.24524 466.12714 469.79211 477.1221 483.62891 487.7019 494.20871 501.5387 508.0455 513.75061 520.25745 523.92242 527.5874 533.29248 540.62244 547.12927 554.45923 558.12421 564.63098 570.33606 574.00104 587.03613 591.10913 597.61597 602.49786 609.82788 615.53296 622.86292 627.74481 631.81781 635.48279 646.06976 652.57654 659.90649 664.78839 671.29517">Researched and provided detailed guidance on the best cloud solutions for their database, such as Microsoft Azure </tspan></text>
<text
             id="text294"
             style="font-variant:normal;font-weight:normal;font-size:14.65999985px;font-family:ArialMT;-inkscape-font-specification:ArialMT;writing-mode:lr-tb;fill:#000000;fill-opacity:1;fill-rule:nonzero;stroke:none"
             transform="translate(60,683.41339)"><tspan
               id="tspan292"
               y="0"
               x="0 8.8546906">● </tspan></text>
<text
             id="text298"
             style="font-variant:normal;font-weight:normal;font-size:14.65999985px;font-family:TimesNewRomanPSMT;-inkscape-font-specification:TimesNewRomanPSMT;writing-mode:lr-tb;fill:#000000;fill-opacity:1;fill-rule:nonzero;stroke:none"
             transform="translate(78,683.41339)"><tspan
               id="tspan296"
               y="0"
               x="0 8.153183 13.035065 19.54187 25.246948 31.753754 39.08374 43.156754 49.663559 56.993546 60.658539 64.731552 72.061539 75.726532 81.43161 87.938416 95.268402 99.341415 106.6714 111.55328 115.21828 119.29129 125.7981 132.3049 139.63489 146.14169 151.02357 156.72865 164.05864 168.13165 175.46164 179.12663 185.63344 192.96342 200.29341 203.9584 211.28839 216.17027 223.50026 230.83025 234.90326 242.23325 248.74005 256.07004 259.73505 266.24185 269.90686 276.41367 283.74365 295.14667 302.47665 307.35852 313.86533 321.19531 327.70212 335.0321 340.73718 344.81018 352.14017 358.64697 362.31195 367.19385 373.70065 381.03064 388.36063 393.24249 397.31549 400.98047 408.31046 415.64044 419.30542 423.37842 430.7084 437.21521 440.88019 448.21017 452.2832 456.90024 461.7821 468.28891 473.17078 479.67758 487.00757 491.08057 494.74554 501.25235 505.32538 512.6554 519.98535 527.31531 530.98029 536.68536 544.01538 548.08838 555.41833 559.49133 563.56433 570.89429 578.22424 583.92932">Presented to senior leadership and provided a comprehensive report on the different cloud solutions </tspan></text>
<text
             id="text302"
             style="font-variant:normal;font-weight:bold;font-size:14.65999985px;font-family:TimesNewRomanPS;-inkscape-font-specification:TimesNewRomanPS-BoldMT;writing-mode:lr-tb;fill:#000000;fill-opacity:1;fill-rule:nonzero;stroke:none"
             transform="translate(48,706.41144)"><tspan
               id="tspan300"
               y="0"
               x="0 10.586975 16.292053 21.997131 29.327118 35.833923 39.906937 47.236923 52.118805 56.191818 63.521805 71.674988 75.339981 82.669968 87.551849 91.216843 105.05363 112.38362 118.89043 124.5955 132.74869 140.07867 144.15169 148.2247 151.88969 160.04288 166.54968 174.70287 182.03285 186.10587 193.43585 199.94266 205.64774 210.52962">Association of Marshall Scholars: </tspan></text>
<text
             id="text306"
             style="font-style:italic;font-variant:normal;font-size:14.65999985px;font-family:TimesNewRomanPS;-inkscape-font-specification:TimesNewRomanPS-ItalicMT;writing-mode:lr-tb;fill:#000000;fill-opacity:1;fill-rule:nonzero;stroke:none"
             transform="translate(262.19461,706.41144)"><tspan
               id="tspan304"
               y="0"
               x="0 7.3299866 14.659973 18.732986 22.806 32.584091 39.914078 45.075134 51.58194 55.246933 64.201843 71.53183 78.861816 82.93483 90.264816 96.771622 103.27843 108.98351">Software Engineer </tspan></text>
<text
             id="text310"
             style="font-style:italic;font-variant:normal;font-size:14.65999985px;font-family:TimesNewRomanPS;-inkscape-font-specification:TimesNewRomanPS-ItalicMT;writing-mode:lr-tb;fill:#000000;fill-opacity:1;fill-rule:nonzero;stroke:none"
             transform="translate(374.84311,706.41144)"><tspan
               id="tspan308"
               y="0"
               x="0 4.8818817 12.211868 16.284882 22.791687 28.496765 35.826752">Intern </tspan></text>
<text
             id="text314"
             style="font-variant:normal;font-weight:normal;font-size:14.65999985px;font-family:TimesNewRomanPSMT;-inkscape-font-specification:TimesNewRomanPSMT;writing-mode:lr-tb;fill:#000000;fill-opacity:1;fill-rule:nonzero;stroke:none"
             transform="translate(624.29211,706.41144)"><tspan
               id="tspan312"
               y="0"
               x="0 5.7050781 12.211884 19.54187 26.871857 33.378662 38.260544 45.59053 49.255524 54.137405 57.802399 65.955582 72.462387 79.792374 84.674255 92.004242 98.511047 103.39293 110.72292 114.38791 121.7179 129.04788 136.37787 143.70786">January - February 2021 </tspan></text>
<text
             id="text318"
             style="font-variant:normal;font-weight:normal;font-size:14.65999985px;font-family:ArialMT;-inkscape-font-specification:ArialMT;writing-mode:lr-tb;fill:#000000;fill-opacity:1;fill-rule:nonzero;stroke:none"
             transform="translate(60,729.47394)"><tspan
               id="tspan316"
               y="0"
               x="0 8.8546906">● </tspan></text>
<text
             id="text322"
             style="font-variant:normal;font-weight:normal;font-size:14.65999985px;font-family:TimesNewRomanPSMT;-inkscape-font-specification:TimesNewRomanPSMT;writing-mode:lr-tb;fill:#000000;fill-opacity:1;fill-rule:nonzero;stroke:none"
             transform="translate(78,729.47394)"><tspan
               id="tspan320"
               y="0"
               x="0 10.586975 17.093781 24.423767 30.930573 35.003586 42.333572 49.663559 56.170364 63.500351 67.165344 73.67215 77.337143 83.042221 89.549026 96.055832 103.38582 108.2677 114.77451 118.4395 125.76949 129.8425 136.3493 140.42232 145.3042 152.63419 157.51607 168.91908 172.58408 177.46596 184.79594 189.67783 193.34282 203.92979 216.96487 225.11806 228.78305 235.28986 239.36287 246.69286 258.09589 265.42587 269.4989 273.16388 279.67068 287.00067 294.33066 297.99567 304.50247 311.83246 316.71436 321.59625 328.10306 335.43304 339.50604 343.17102 348.8761 352.9491 360.27908 367.60907 374.11588 381.44586 385.51886 391.22394 394.88892 398.96191 406.2919 409.95691 416.46371 423.7937 431.12369 438.45367 444.96048 451.46729 455.54028 459.20526 469.79224 473.86523 477.93823 485.26822 488.93323 495.44003 501.94684 508.45364 515.78363 519.44861 526.77856 530.85156 538.18152 544.68835 549.57025">Developed a secure platform for AMS alumni and current students to connect with each other </tspan></text>
<text
             id="text326"
             style="font-variant:normal;font-weight:normal;font-size:14.65999985px;font-family:ArialMT;-inkscape-font-specification:ArialMT;writing-mode:lr-tb;fill:#000000;fill-opacity:1;fill-rule:nonzero;stroke:none"
             transform="translate(60,746.40363)"><tspan
               id="tspan324"
               y="0"
               x="0 8.8546906">● </tspan></text>
<text
             id="text330"
             style="font-variant:normal;font-weight:normal;font-size:14.65999985px;font-family:TimesNewRomanPSMT;-inkscape-font-specification:TimesNewRomanPSMT;writing-mode:lr-tb;fill:#000000;fill-opacity:1;fill-rule:nonzero;stroke:none"
             transform="translate(78,746.40363)"><tspan
               id="tspan328"
               y="0"
               x="0 12.662842 19.992828 24.87471 32.204697 38.711502 46.041489 49.706482 60.293457 64.36647 68.439484 75.76947 79.434464 84.316345 89.198227 96.528214 103.8582 107.93121 112.8131 119.3199 126.64989 133.97987 137.64487 144.15167 151.48166 158.81165 162.47664 169.80663 176.31343 182.82024 190.15022 195.0321 201.53891 208.8689 216.19888 219.86388 227.19386 233.70067 241.03065 247.53746 251.61047 258.94046 266.27045 277.67346 284.18027 291.51025 295.58325 299.24823 302.91321 311.06641 321.65338 328.18164 331.84665 335.51166 342.01846 349.34845 356.67844 360.34344 368.49664 379.08362 388.03851">Worked with front-end and back-end development, PHP, and SQL </tspan></text>
<text
             id="text334"
             style="font-variant:normal;font-weight:normal;font-size:14.65999985px;font-family:ArialMT;-inkscape-font-specification:ArialMT;writing-mode:lr-tb;fill:#000000;fill-opacity:1;fill-rule:nonzero;stroke:none"
             transform="translate(60,763.33331)"><tspan
               id="tspan332"
               y="0"
               x="0 8.8546906">● </tspan></text>
<text
             id="text338"
             style="font-variant:normal;font-weight:normal;font-size:14.65999985px;font-family:TimesNewRomanPSMT;-inkscape-font-specification:TimesNewRomanPSMT;writing-mode:lr-tb;fill:#000000;fill-opacity:1;fill-rule:nonzero;stroke:none"
             transform="translate(78,763.33331)"><tspan
               id="tspan336"
               y="0"
               x="0 4.8818817 12.211868 18.718674 26.04866 30.121674 34.194687 39.076569 43.149582 49.656387 56.986374 60.651367 67.981354 74.488159 80.193237 84.266251 87.931244 95.26123 100.14311 106.64992 113.15672 117.22974 121.30275 127.80956 134.31636 140.02144 143.68643 147.75945 155.08943 158.75443 170.15744 176.66425 180.73726 188.06725 192.14026 198.64706 202.72008 210.05006 213.71506 219.42014 225.92694 232.43375 239.76373 244.64561 248.71863 252.79164 260.12164 263.78662 271.11661 275.99847 279.66345 286.99344 292.69852 299.20532 304.08722 309.7923 314.67419 318.33917 322.41217 329.74216 334.62402 341.95401 346.83588 358.23889 364.7457 368.81873 372.89172 380.22171 387.5517 391.62469 395.28967 402.61966 409.12646 414.83154 420.53662 431.1236 438.45358 443.33545 450.66544 454.33044 461.66043 468.16724 473.87231 481.2023 485.27533 492.60532 499.9353 503.60028 507.26526 512.97034 519.47717 526.80713 530.88013 534.95312 539.02612 545.53296 549.60596 556.93591 564.26587 567.93085 575.26086 580.96594 587.47278 592.35468 596.01965 600.09265 607.42261 614.75256 622.08252 626.15552">Identified best practices to maintain security of users’ information; password hashing, sanitizing user input </tspan></text>
<text
             id="text342"
             style="font-variant:normal;font-weight:bold;font-size:14.65999985px;font-family:TimesNewRomanPS;-inkscape-font-specification:TimesNewRomanPS-BoldMT;writing-mode:lr-tb;fill:#000000;fill-opacity:1;fill-rule:nonzero;stroke:none"
             transform="translate(48,786.33136)"><tspan
               id="tspan340"
               y="0"
               x="0 10.586975 14.659988 20.365067 26.871872 34.201859 37.866852 46.020035 53.350021 59.055099 63.936981 70.443787 82.65567 88.360748 92.025742 96.907623 110.75873 117.26553 125.41872 135.19681 142.52679 147.40868 152.29056">Cisco Systems (WebEx): </tspan></text>
<text
             id="text346"
             style="font-style:italic;font-variant:normal;font-size:14.65999985px;font-family:TimesNewRomanPS;-inkscape-font-specification:TimesNewRomanPS-ItalicMT;writing-mode:lr-tb;fill:#000000;fill-opacity:1;fill-rule:nonzero;stroke:none"
             transform="translate(203.95555,786.33136)"><tspan
               id="tspan344"
               y="0"
               x="0 7.3299866 14.659973 18.732986 22.806 32.584091 39.914078 45.075134 51.58194 55.246933 64.201843 71.53183 78.861816 82.93483 90.264816 96.771622 103.27843 108.98351 112.6485 117.53038 124.86037 128.93338 135.44019 141.14526 148.47525">Software Engineer Intern </tspan></text>
<text
             id="text350"
             style="font-variant:normal;font-weight:normal;font-size:14.65999985px;font-family:TimesNewRomanPSMT;-inkscape-font-specification:TimesNewRomanPSMT;writing-mode:lr-tb;fill:#000000;fill-opacity:1;fill-rule:nonzero;stroke:none"
             transform="translate(653.57629,786.33136)"><tspan
               id="tspan348"
               y="0"
               x="0 5.7050781 13.035065 20.365051 26.871857">June </tspan></text>
<text
             id="text354"
             style="font-variant:normal;font-weight:normal;font-size:14.65999985px;font-family:TimesNewRomanPSMT;-inkscape-font-specification:TimesNewRomanPSMT;writing-mode:lr-tb;fill:#000000;fill-opacity:1;fill-rule:nonzero;stroke:none"
             transform="translate(684.11316,786.33136)"><tspan
               id="tspan352"
               y="0"
               x="0 4.8818817 8.546875 19.13385 26.463837 33.793823 41.12381 46.828888 50.901901 54.566895 61.896881 69.226868 76.556854 83.886841">- August 2020 </tspan></text>
<text
             id="text358"
             style="font-variant:normal;font-weight:normal;font-size:14.65999985px;font-family:ArialMT;-inkscape-font-specification:ArialMT;writing-mode:lr-tb;fill:#000000;fill-opacity:1;fill-rule:nonzero;stroke:none"
             transform="translate(60,809.39386)"><tspan
               id="tspan356"
               y="0"
               x="0 8.8546906">● </tspan></text>
<text
             id="text362"
             style="font-variant:normal;font-weight:normal;font-size:14.65999985px;font-family:TimesNewRomanPSMT;-inkscape-font-specification:TimesNewRomanPSMT;writing-mode:lr-tb;fill:#000000;fill-opacity:1;fill-rule:nonzero;stroke:none"
             transform="translate(78,809.39386)"><tspan
               id="tspan360"
               y="0"
               x="0 9.7780914 17.108078 28.511093 35.84108 39.914093 46.420898 50.493912 57.000717 64.330704 67.995697 74.502502 81.832489 89.162476 95.669281 102.99927 109.50607 116.01288 127.41589 133.9227 141.25269 145.3257 151.03078 154.69577 158.36076 165.69075 173.02074 180.35072 184.01572 188.8976 192.97061 200.3006 206.8074 212.51248 216.17747 219.84247 226.34927 233.67926 241.00925 244.67424 249.55612 256.06293 262.56973 266.64276 273.97275 278.85461 285.36142 289.02643 293.90833 300.41513 307.74512 315.0751 321.58191 327.28699 331.35999 337.06506 340.73004 345.61194 352.94193 357.82379 361.48877 365.56177 372.89175 379.39856 383.06354 387.13654 394.46652 398.53955 405.04636 409.92822 417.25821 423.76501 427.83801 431.50299 438.83298 442.90601 449.41281 456.7428 464.07278 471.40277 477.10785 481.18085 485.25385 491.76065 495.42566 499.49866 506.82864 514.15863 518.23163 521.89661 526.7785 533.28528 539.79211 543.86511 547.93811 551.60309 555.67609 560.55798 567.06482 573.57166 580.90161 587.40845 592.83435 597.71619">Completed enhancements, bug fixes, and feature requests for the internal diagnostic tool ‘call tracker’ </tspan></text>
<text
             id="text366"
             style="font-variant:normal;font-weight:normal;font-size:14.65999985px;font-family:ArialMT;-inkscape-font-specification:ArialMT;writing-mode:lr-tb;fill:#000000;fill-opacity:1;fill-rule:nonzero;stroke:none"
             transform="translate(60,826.32355)"><tspan
               id="tspan364"
               y="0"
               x="0 8.8546906">● </tspan></text>
<text
             id="text370"
             style="font-variant:normal;font-weight:normal;font-size:14.65999985px;font-family:TimesNewRomanPSMT;-inkscape-font-specification:TimesNewRomanPSMT;writing-mode:lr-tb;fill:#000000;fill-opacity:1;fill-rule:nonzero;stroke:none"
             transform="translate(78,826.32355)"><tspan
               id="tspan368"
               y="0"
               x="0 8.153183 15.48317 22.813156 30.143143 37.473129 42.355011 46.428024 52.93483 60.264816 63.92981 71.259796 78.589783 82.662796 89.992783 93.657776 97.730789 105.06078 111.56758 115.23257 125.81955 133.97273 137.63773 144.14453 151.47452 158.8045 162.4695 171.42441 184.45949 193.4144 204.00137 207.66637 214.99635 221.50316 227.20824 233.71504 241.04503 244.71002 257.37286 263.87967 271.20966 280.16455 287.49454 291.15955 298.48953 304.99634 312.32632 318.83313 322.90613 330.23611 337.5661 348.96912 355.47592 362.80591 366.87891 370.54388 374.61688 381.12369 387.63049 399.03351 404.73859">Supported both the US and EMEA based WebEx development teams </tspan></text>
<text
             id="text374"
             style="font-variant:normal;font-weight:normal;font-size:14.65999985px;font-family:ArialMT;-inkscape-font-specification:ArialMT;writing-mode:lr-tb;fill:#000000;fill-opacity:1;fill-rule:nonzero;stroke:none"
             transform="translate(60,843.25323)"><tspan
               id="tspan372"
               y="0"
               x="0 8.8546906">● </tspan></text>
<text
             id="text378"
             style="font-variant:normal;font-weight:normal;font-size:14.65999985px;font-family:TimesNewRomanPSMT;-inkscape-font-specification:TimesNewRomanPSMT;writing-mode:lr-tb;fill:#000000;fill-opacity:1;fill-rule:nonzero;stroke:none"
             transform="translate(78,843.25323)"><tspan
               id="tspan376"
               y="0"
               x="0 10.586975 14.659988 18.733002 22.806015 26.879028 33.385834 39.892639 47.222626 50.887619 61.474594 65.547607 69.620621 73.285614 76.950607 87.537582 96.492493 109.52757 118.48248 122.14748 125.81247 135.59056 143.74374 151.89693 155.56192 159.22691 164.93199 171.4388 178.76878 185.27559 193.42877 199.93558 204.81746 208.89047 216.22046 220.29347 223.95847 227.62346 235.77664 243.10663 247.17964 254.50963 261.8396 269.16959 272.83459 276.49957 283.00638 290.33636 297.66635 301.33136 311.91833 315.99133 322.49814 329.82812 333.4931 344.08008 351.41006 356.29193 363.62192 367.69495 375.02493 382.35492 386.0199 396.60687 400.67987 404.75287 412.08286 416.15588 423.48587 427.15088 431.22388 436.10577 442.61258 449.94257 454.01556 458.08856 462.16156 469.49155 476.82153 483.32834 487.40137 491.06635 496.77142 500.84442 505.72632 512.23315 515.89813 523.22815 528.11005 532.18304 539.51306 546.0199 553.34985 557.01483 562.71991 569.22668 574.10858 581.4386 592.84161 596.91461 602.61969 609.94971 614.8316 618.9046 626.23462 630.30762 633.9726 639.67767 646.18445 651.88953 657.5946 661.6676 668.99756 676.32751 682.03259">Utilized Git, HTML, CSS, JavaScript, Python, and Ajax working within traditional Jira driven scrum/sprint sessions </tspan></text>
<text
             id="text382"
             style="font-variant:normal;font-weight:bold;font-size:16px;font-family:TimesNewRomanPS;-inkscape-font-specification:TimesNewRomanPS-BoldMT;writing-mode:lr-tb;fill:#000000;fill-opacity:1;fill-rule:nonzero;stroke:none"
             transform="translate(48,875.16211)"><tspan
               id="tspan380"
               y="0"
               x="0 12.445312 23.117188 35.5625 46.234375 57.789062 61.789062 72.460938 84.015625 93.789062 104.46094 116.01562 122.24219 132.91406 144.46875 156.02344 166.69531">OTHER EXPERIENCE </tspan></text>
<path
             id="path384"
             style="fill:none;stroke:#888888;stroke-width:1;stroke-linecap:butt;stroke-linejoin:miter;stroke-miterlimit:10;stroke-dasharray:none;stroke-opacity:1"
             d="M 46,884.5 H 764" /><text
             id="text388"
             style="font-variant:normal;font-weight:bold;font-size:14.65999985px;font-family:TimesNewRomanPS;-inkscape-font-specification:TimesNewRomanPS-BoldMT;writing-mode:lr-tb;fill:#000000;fill-opacity:1;fill-rule:nonzero;stroke:none"
             transform="translate(48,904.58136)"><tspan
               id="tspan386"
               y="0"
               x="0 13.836792 19.54187 29.319962 32.984955 43.57193 54.974945 68.811737 82.648529 88.353607 98.131699 101.79669 113.19971 119.44167 126.77165 134.92484 143.07802 147.9599">MIT COMMIT Group: </tspan></text>
<text
             id="text392"
             style="font-style:italic;font-variant:normal;font-size:14.65999985px;font-family:TimesNewRomanPS;-inkscape-font-specification:TimesNewRomanPS-ItalicMT;writing-mode:lr-tb;fill:#000000;fill-opacity:1;fill-rule:nonzero;stroke:none"
             transform="translate(199.62489,904.58136)"><tspan
               id="tspan390"
               y="0"
               x="0 10.586975 17.916962 25.246948 31.753754 36.91481 44.244797 49.949875 57.279861 64.609848 71.939835 79.269821 83.342834 89.84964 93.514633 104.10161 113.05652 123.64349 132.5984">Undergraduate UROP </tspan></text>
<text
             id="text396"
             style="font-variant:normal;font-weight:normal;font-size:14.65999985px;font-family:TimesNewRomanPSMT;-inkscape-font-specification:TimesNewRomanPSMT;writing-mode:lr-tb;fill:#000000;fill-opacity:1;fill-rule:nonzero;stroke:none"
             transform="translate(643.0108,904.58136)"><tspan
               id="tspan394"
               y="0"
               x="0 8.153183 14.659988 21.989975 26.871857 34.201843 40.708649 45.59053 52.920517 56.58551 61.467392 65.132385 78.167465 84.674271 92.004257">February - May </tspan></text>
<text
             id="text400"
             style="font-variant:normal;font-weight:normal;font-size:14.65999985px;font-family:TimesNewRomanPSMT;-inkscape-font-specification:TimesNewRomanPSMT;writing-mode:lr-tb;fill:#000000;fill-opacity:1;fill-rule:nonzero;stroke:none"
             transform="translate(738.68005,904.58136)"><tspan
               id="tspan398"
               y="0"
               x="0 7.3299866 14.659973 21.98996 29.319946">2023 </tspan></text>
<text
             id="text404"
             style="font-variant:normal;font-weight:normal;font-size:14.65999985px;font-family:ArialMT;-inkscape-font-specification:ArialMT;writing-mode:lr-tb;fill:#000000;fill-opacity:1;fill-rule:nonzero;stroke:none"
             transform="translate(60,927.64386)"><tspan
               id="tspan402"
               y="0"
               x="0 8.8546906">● </tspan></text>
<text
             id="text408"
             style="font-variant:normal;font-weight:normal;font-size:14.65999985px;font-family:TimesNewRomanPSMT;-inkscape-font-specification:TimesNewRomanPSMT;writing-mode:lr-tb;fill:#000000;fill-opacity:1;fill-rule:nonzero;stroke:none"
             transform="translate(78,927.64386)"><tspan
               id="tspan406"
               y="0"
               x="0 9.7780914 16.284897 21.989975 28.49678 35.003586 39.885468 46.392273 53.72226 60.229065 67.559052 71.224045 77.73085 85.060837 92.390823 96.055817 100.12883 111.53185 118.86183 122.93484 129.44165 140.84467 147.35147 154.68146 158.75447 165.26128 172.59126 176.25626 181.96133 186.03435 190.91623 197.42303 201.49605 208.00285 215.33284 219.40585 225.91266 231.61774 235.28273 239.35574 246.68573 250.35072 257.68073 263.3858 269.89261 273.55762 280.06442 284.13745 291.46744 298.79742 306.12741 309.79242 314.67432 321.18112 326.8862 334.21619 341.54617 346.42804 352.93484 359.44165 365.14673 368.81171 375.31851 382.6485 389.97849 393.64349 400.1503 406.6571 413.16391 420.4939 424.56689 431.89688 439.22687 442.89185 446.96484 454.29483 457.95984 462.03284 473.43585 480.76584 485.64771 492.97769 500.30768 506.81448 510.47949 516.98633 524.31628 535.7193 543.04932 547.12231 551.19531 557.70215 561.36713 565.44012 569.51312 580.91614 587.42297 593.12805">Researched and implemented strategies to use cloud resources and caching to improve compile times </tspan></text>
<text
             id="text412"
             style="font-variant:normal;font-weight:bold;font-size:14.65999985px;font-family:TimesNewRomanPS;-inkscape-font-specification:TimesNewRomanPS-BoldMT;writing-mode:lr-tb;fill:#000000;fill-opacity:1;fill-rule:nonzero;stroke:none"
             transform="translate(48,950.64191)"><tspan
               id="tspan410"
               y="0"
               x="0 13.836792 19.54187 29.319962 32.984955 43.57193 50.078735 58.231918 65.561905 72.06871 76.950592 89.162476 95.669281 103.82246 108.70435 112.36934 119.69933 124.58121 128.2462 138.02429 147.80238 158.38936 166.54254 171.42442">MIT Department of EECS: </tspan></text>
<text
             id="text416"
             style="font-style:italic;font-variant:normal;font-size:14.65999985px;font-family:TimesNewRomanPS;-inkscape-font-specification:TimesNewRomanPS-ItalicMT;writing-mode:lr-tb;fill:#000000;fill-opacity:1;fill-rule:nonzero;stroke:none"
             transform="translate(223.08942,950.64191)"><tspan
               id="tspan414"
               y="0"
               x="0 10.586975 17.916962 25.246948 31.753754 36.91481 44.244797 49.949875 57.279861 64.609848 71.939835 79.269821 83.342834 89.84964 93.514633 100.57977 109.53468">Undergraduate TA </tspan></text>
<text
             id="text420"
             style="font-variant:normal;font-weight:normal;font-size:14.65999985px;font-family:TimesNewRomanPSMT;-inkscape-font-specification:TimesNewRomanPSMT;writing-mode:lr-tb;fill:#000000;fill-opacity:1;fill-rule:nonzero;stroke:none"
             transform="translate(634.05591,950.64191)"><tspan
               id="tspan418"
               y="0"
               x="0 5.7050781 12.211884 19.54187 26.871857 33.378662 38.260544 45.59053 49.255524 56.58551 63.915497 71.245483 78.57547">January 2023 </tspan></text>
<text
             id="text424"
             style="font-variant:normal;font-weight:normal;font-size:14.65999985px;font-family:TimesNewRomanPSMT;-inkscape-font-specification:TimesNewRomanPSMT;writing-mode:lr-tb;fill:#000000;fill-opacity:1;fill-rule:nonzero;stroke:none"
             transform="translate(716.29639,950.64191)"><tspan
               id="tspan422"
               y="0"
               x="0 4.8818817 8.546875 16.700058 21.58194 28.088745 33.793823 40.300629 47.630615 51.703629">- Present </tspan></text>
<text
             id="text428"
             style="font-variant:normal;font-weight:normal;font-size:14.65999985px;font-family:ArialMT;-inkscape-font-specification:ArialMT;writing-mode:lr-tb;fill:#000000;fill-opacity:1;fill-rule:nonzero;stroke:none"
             transform="translate(72,973.70441)"><tspan
               id="tspan426"
               y="0"
               x="0 8.8546906">● </tspan></text>
<text
             id="text432"
             style="font-variant:normal;font-weight:normal;font-size:14.65999985px;font-family:TimesNewRomanPSMT;-inkscape-font-specification:TimesNewRomanPSMT;writing-mode:lr-tb;fill:#000000;fill-opacity:1;fill-rule:nonzero;stroke:none"
             transform="translate(96,973.70441)"><tspan
               id="tspan430"
               y="0"
               x="0 8.9549103 16.284897 20.35791 24.430923 30.937729 38.267715 41.932709 48.439514 55.769501 63.099487 67.981369 73.686447 80.193253 83.858246 95.261261 101.76807 105.84108 112.34789 117.22977 121.30278 127.80959 131.8826 135.54759 139.21259 144.91766 148.99068 155.49748 160.11452 164.9964 171.5032 178.83319 182.49818 189.82817 194.44521 199.32709 203.4001 209.90691 216.41371 220.0787 227.40869 234.73868 242.06866 246.95055 252.65562 256.32062 259.9856 267.31558 272.19745 278.70425 286.03424 292.54105 299.87103 303.53601 309.24109 313.31409 320.64407 327.97406 334.48087 341.81085 345.88385 349.54883 356.05563 361.76071 367.46579 371.53882 378.8688 386.19879 397.60181 404.10861 411.4386 415.5116 421.21667 424.88165 428.54663 435.05344 442.38342 449.71341 453.37842 460.7084 465.59027 472.92026 479.42706 483.50006 490.83005 495.71191 502.21872 509.54871 513.21368 519.72046 527.05042 533.55725 544.96027 550.66534 554.33032 559.21222 566.54224 571.42413 575.08911 581.59595 585.66895 592.17578 603.5788 610.08557 617.41553 621.48853 627.1936 630.85858 638.1886 643.0705">Edited course material, staffed office hours, graded student assignments, and proctored exams for elements of </tspan></text>
<text
             id="text436"
             style="font-variant:normal;font-weight:normal;font-size:14.65999985px;font-family:TimesNewRomanPSMT;-inkscape-font-specification:TimesNewRomanPSMT;writing-mode:lr-tb;fill:#000000;fill-opacity:1;fill-rule:nonzero;stroke:none"
             transform="translate(96,990.56964)"><tspan
               id="tspan434"
               y="0"
               x="0 5.7050781 13.035065 17.916946 21.98996 32.576935 39.08374 43.965622 50.472427 54.137421 60.644226 67.974213 75.304199 81.009277 85.082291 89.964172 97.294159 103.80096 107.87398 111.94699 119.27698 126.60696 130.27196 135.15384 142.48383 146.14882 153.47881 160.80879 168.13878 173.02066 176.68565 183.19246 190.52245 197.85243 201.51743 206.39931 213.72929 221.05928 228.38927 234.89607 246.29909 252.80589 260.13586 264.20886 270.71567 274.7887 280.49377 284.15875 291.48874 296.37061 300.03558 307.36557 312.24744 319.57742 326.90741 331.78931 338.29611 349.69913 361.10214 365.17517 372.50516 379.83514 383.50012 388.38202 395.71201 399.37701 406.707 414.03699 421.36697 426.24884">software construction (6.102) and fundamentals of programming (6.101) </tspan></text>
<path
             id="path438"
             style="fill:none;stroke:#1155cc;stroke-width:1;stroke-linecap:butt;stroke-linejoin:miter;stroke-miterlimit:10;stroke-dasharray:none;stroke-opacity:1"
             d="M 161,90.5 H 305" /><path
             id="path440"
             style="fill:none;stroke:#1155cc;stroke-width:1;stroke-linecap:butt;stroke-linejoin:miter;stroke-miterlimit:10;stroke-dasharray:none;stroke-opacity:1"
             d="M 408,90.5 H 563" /><path
             id="path442"
             style="fill:none;stroke:#1155cc;stroke-width:1;stroke-linecap:butt;stroke-linejoin:miter;stroke-miterlimit:10;stroke-dasharray:none;stroke-opacity:1"
             d="M 573,90.5 H 738" /></g></g></g></g></svg>